<svg width="37" height="36" viewBox="0 0 37 36" fill="none" xmlns="http://www.w3.org/2000/svg">
<g clip-path="url(#clip0_40_85)">
<path d="M18.0782 36C15.638 36 13.2701 35.5239 11.0412 34.5855C8.88845 33.6789 6.95526 32.3811 5.29492 30.728C3.63458 29.0748 2.33119 27.15 1.42067 25.0066C0.478162 22.7869 0 20.4296 0 18C0 15.5704 0.478162 13.2127 1.42067 10.9934C2.33119 8.85002 3.63458 6.92519 5.29492 5.27203C6.95526 3.61887 8.88845 2.32111 11.0412 1.41452C13.2701 0.476095 15.6376 0 18.0782 0C20.5187 0 22.8862 0.476095 25.1152 1.41452C27.2679 2.32111 29.2011 3.61887 30.8614 5.27203C32.5217 6.92519 33.8251 8.85002 34.7357 10.9934C35.6786 13.2127 36.1563 15.5704 36.1563 18C36.1563 20.4296 35.6782 22.7873 34.7357 25.0066C33.8251 27.15 32.5217 29.0748 30.8614 30.728C29.2011 32.3811 27.2679 33.6789 25.1152 34.5855C22.8862 35.5243 20.5183 36 18.0782 36ZM18.0782 0.870809C15.7557 0.870809 13.5027 1.32371 11.3819 2.21693C9.33344 3.07948 7.49344 4.31473 5.91326 5.88809C4.33307 7.46144 3.09285 9.29348 2.22616 11.3331C1.32906 13.4447 0.87459 15.6879 0.87459 18.0004C0.87459 20.3129 1.32946 22.5561 2.22616 24.6677C3.09246 26.7073 4.33307 28.5393 5.91326 30.1127C7.49344 31.6861 9.33344 32.9209 11.3819 33.7839C13.5027 34.6771 15.7557 35.1296 18.0782 35.1296C20.4007 35.1296 22.6537 34.6767 24.7744 33.7839C26.8229 32.9213 28.6629 31.6861 30.2431 30.1127C31.8232 28.5393 33.0635 26.7073 33.9302 24.6677C34.8273 22.5561 35.2817 20.3129 35.2817 18.0004C35.2817 15.6879 34.8269 13.4447 33.9302 11.3331C33.0639 9.29348 31.8232 7.46144 30.2431 5.88809C28.6629 4.31473 26.8229 3.07987 24.7744 2.21693C22.6537 1.32371 20.4007 0.870809 18.0782 0.870809Z" fill="#2EBCC9"/>
<path d="M18.0781 2.13867C26.8763 2.13867 34.0088 9.23983 34.0088 18C34.0088 26.7602 26.8763 33.8613 18.0781 33.8613C9.27993 33.8613 2.14746 26.7602 2.14746 18C2.14747 9.23984 9.27993 2.13869 18.0781 2.13867ZM26.2148 7.77734C25.803 7.54893 25.2977 7.56014 24.8965 7.80664L22.5088 9.27734C21.6358 9.81474 21.1143 10.7449 21.1143 11.7666V23.6201L13.2607 15.5908V24.4111C13.2607 25.2202 12.602 25.8769 11.7891 25.877H11.7695V11.9668L18.6865 19.3506C19.6941 18.4145 19.7487 16.8421 18.8086 15.8389L13.3027 9.96094C12.6461 9.26006 11.6431 9.03469 10.748 9.38574C9.85279 9.73681 9.27362 10.5828 9.27344 11.541V28.3613H11.7891C13.9798 28.3611 15.7547 26.593 15.7549 24.4121V21.7041L21.3408 27.4131C21.9627 28.0488 22.796 28.3877 23.6484 28.3877C24.061 28.3877 24.4784 28.3082 24.8779 28.1455C26.1011 27.6462 26.8818 26.4377 26.8818 25.1211V8.9082C26.8817 8.43895 26.6256 8.00569 26.2139 7.77734H26.2148ZM24.3867 25.1699L24.373 25.3242C24.31 25.6557 24.0499 25.7978 23.9297 25.8467C23.8634 25.8734 23.7474 25.9087 23.6104 25.9033V11.7666C23.6104 11.6133 23.6902 11.4712 23.8213 11.3906L24.3867 11.042V25.1699Z" fill="#2EBCC9"/>
</g>
<defs>
<clipPath id="clip0_40_85">
<rect width="36.1563" height="36" fill="white"/>
</clipPath>
</defs>
</svg>
