<svg width="153" height="48" viewBox="0 0 153 48" fill="none" xmlns="http://www.w3.org/2000/svg">
<g clip-path="url(#clip0_33_1107)">
<path d="M24.0249 45.1489C35.7173 45.1489 45.1958 35.6802 45.1958 24C45.1958 12.3198 35.7173 2.85107 24.0249 2.85107C12.3326 2.85107 2.85403 12.3198 2.85403 24C2.85403 35.6802 12.3326 45.1489 24.0249 45.1489Z" fill="#4A4736"/>
<path d="M24.0249 48C20.7821 48 17.6352 47.3652 14.6731 46.114C11.8123 44.9052 9.24318 43.1748 7.03668 40.9706C4.83017 38.7664 3.09803 36.2 1.88799 33.3421C0.635452 30.3825 0 27.2395 0 24C0 20.7605 0.635452 17.6169 1.88799 14.6579C3.09803 11.8 4.83017 9.23359 7.03668 7.02938C9.24318 4.82516 11.8123 3.09481 14.6731 1.88603C17.6352 0.634793 20.7815 0 24.0249 0C27.2683 0 30.4146 0.634793 33.3767 1.88603C36.2376 3.09481 38.8067 4.82516 41.0132 7.02938C43.2197 9.23359 44.9518 11.8 46.1618 14.6579C47.4149 17.6169 48.0498 20.7605 48.0498 24C48.0498 27.2395 47.4144 30.3831 46.1618 33.3421C44.9518 36.2 43.2197 38.7664 41.0132 40.9706C38.8067 43.1748 36.2376 44.9052 33.3767 46.114C30.4146 47.3657 27.2678 48 24.0249 48ZM24.0249 1.16108C20.9384 1.16108 17.9443 1.76494 15.126 2.9559C12.4036 4.10597 9.95839 5.75298 7.85841 7.85078C5.75842 9.94859 4.11024 12.3913 2.95845 15.1108C1.76625 17.9262 1.16228 20.9172 1.16228 24.0005C1.16228 27.0838 1.76678 30.0748 2.95845 32.8902C4.10971 35.6097 5.75842 38.0525 7.85841 40.1503C9.95839 42.2481 12.4036 43.8946 15.126 45.0451C17.9443 46.2361 20.9384 46.8394 24.0249 46.8394C27.1114 46.8394 30.1055 46.2356 32.9239 45.0451C35.6462 43.8951 38.0914 42.2481 40.1914 40.1503C42.2914 38.0525 43.9396 35.6097 45.0914 32.8902C46.2836 30.0748 46.8876 27.0838 46.8876 24.0005C46.8876 20.9172 46.2831 17.9262 45.0914 15.1108C43.9401 12.3913 42.2914 9.94859 40.1914 7.85078C38.0914 5.75298 35.6462 4.1065 32.9239 2.9559C30.1055 1.76494 27.1114 1.16108 24.0249 1.16108Z" fill="#2EBCC9"/>
<path d="M34.8376 10.3695C34.2903 10.065 33.6197 10.0802 33.0865 10.4088L29.9124 12.3693C28.7522 13.0859 28.0601 14.3266 28.0601 15.689V31.4933L17.6226 20.7883V32.5485C17.6226 33.6273 16.7474 34.5021 15.667 34.5021H15.6407V15.9558L24.833 25.8006C26.1721 24.5525 26.2456 22.4563 24.9962 21.1185L17.6788 13.2814C16.8062 12.3468 15.4733 12.0459 14.2838 12.514C13.0937 12.9821 12.3244 14.1107 12.3244 15.3886V37.815H15.6664C18.5782 37.815 20.9379 35.4572 20.9379 32.549V28.9384L28.3603 36.5512C29.1867 37.3988 30.2944 37.8496 31.4273 37.8496C31.9757 37.8496 32.5303 37.7437 33.0614 37.5267C34.687 36.861 35.7244 35.2501 35.7244 33.4946V11.8781C35.7244 11.2523 35.3844 10.6741 34.8371 10.3695H34.8376ZM32.4086 33.5602C32.4086 34.1509 31.9841 34.3873 31.8015 34.4618C31.7133 34.4974 31.559 34.5446 31.3764 34.5373V15.689C31.3764 15.4846 31.4824 15.2948 31.6566 15.1873L32.4091 14.7224V33.5602H32.4086Z" fill="#2EBCC9"/>
<path d="M58.4873 14.9092V24.1569H58.4189L57.2529 20.199C56.7061 18.276 56.1523 16.3526 55.5907 14.4296C55.3771 13.6989 54.7058 13.1971 53.9434 13.1971H51.7998V32.7962C51.7998 33.7417 52.5677 34.5084 53.5146 34.5084H55.2295V23.548H55.2979L56.2582 26.8971C57.0127 29.4344 57.7554 31.9716 58.4873 34.5084H60.2021C61.1491 34.5084 61.9169 33.7417 61.9169 32.7962V13.1971H60.2021C59.2551 13.1971 58.4873 13.9637 58.4873 14.9092Z" fill="#2EBCC9"/>
<path d="M68.2697 17.753C66.3708 17.753 65.0409 18.4636 64.2795 19.8843C63.518 21.3055 63.1371 23.4363 63.1371 26.2778C63.1371 29.1192 63.518 31.2505 64.2795 32.6712C65.0409 34.0924 66.3708 34.8025 68.2697 34.8025C70.1686 34.8025 71.4985 34.0924 72.2599 32.6712C73.0214 31.2505 73.4023 29.1197 73.4023 26.2778C73.4023 23.4358 73.0214 21.3055 72.2599 19.8843C71.4985 18.4636 70.1681 17.753 68.2697 17.753ZM69.6109 29.5988C69.5115 30.3827 69.357 30.9316 69.1473 31.2451C68.9371 31.5591 68.6448 31.7154 68.2697 31.7154C67.8947 31.7154 67.6018 31.5586 67.3921 31.2451C67.182 30.9321 67.0279 30.3831 66.9285 29.5988C66.829 28.8155 66.7793 27.7078 66.7793 26.2773C66.7793 24.8467 66.829 23.7395 66.9285 22.9557C67.0279 22.1724 67.182 21.6235 67.3921 21.3094C67.6018 20.9964 67.8942 20.8391 68.2697 20.8391C68.6453 20.8391 68.9371 20.9964 69.1473 21.3094C69.357 21.623 69.5115 22.1719 69.6109 22.9557C69.7104 23.74 69.7601 24.8472 69.7601 26.2773C69.7601 27.7073 69.7104 28.8155 69.6109 29.5988Z" fill="#2EBCC9"/>
<path d="M82.0128 18.0468H81.1736C80.4973 18.0468 79.9269 18.5486 79.8422 19.2189C79.826 19.3472 79.8097 19.4754 79.7935 19.6047C79.6389 20.9178 79.4731 22.2308 79.2969 23.5434L78.436 30.422H78.3696L77.5747 23.9553C77.4639 23.0147 77.3758 22.309 77.3099 21.8387C77.2439 21.3684 77.1553 20.6435 77.0451 19.6636C77.0273 19.5167 77.0096 19.3707 76.9919 19.2248C76.9097 18.552 76.3383 18.0468 75.66 18.0468H73.138C73.3369 19.3211 73.4855 20.271 73.5849 20.8981C73.6844 21.5256 73.8443 22.4957 74.0653 23.8083V23.8963L75.5744 33.3784C75.6777 34.029 76.2398 34.5077 76.8999 34.5077H79.8757C80.5347 34.5077 81.0973 34.03 81.2017 33.3799C81.4458 31.855 81.6835 30.3301 81.9139 28.8047L82.7417 23.396C82.9179 22.22 83.0563 21.3384 83.1557 20.7502C83.2069 20.4465 83.2684 20.0592 83.3407 19.588C83.4643 18.7771 82.8358 18.0459 82.0143 18.0459L82.0128 18.0468Z" fill="#2EBCC9"/>
<path d="M86.5878 13.1969C85.9637 13.1969 85.4237 13.6269 85.281 14.2339C85.0905 15.0447 84.8946 15.8551 84.6938 16.6654V16.7244H84.996C86.0567 16.7244 87.0499 16.2079 87.6612 15.3425C87.6696 15.3307 87.678 15.3189 87.6863 15.3071C88.3124 14.4201 87.675 13.1969 86.5883 13.1969H86.5878Z" fill="#2EBCC9"/>
<path d="M85.8362 18.0468H84.0977V32.772C84.0977 33.7308 84.8759 34.5077 85.8362 34.5077C86.7965 34.5077 87.5746 33.7308 87.5746 32.772V19.7826C87.5746 18.8238 86.7965 18.0468 85.8362 18.0468Z" fill="#2EBCC9"/>
<path d="M96.7142 26.2625C96.2284 25.8217 95.5994 25.3367 94.8266 24.8074C94.0096 24.2197 93.4194 23.7395 93.0552 23.367C92.691 22.995 92.5089 22.5439 92.5089 22.0151C92.5089 21.6431 92.6024 21.3296 92.7904 21.0745C92.9779 20.82 93.2595 20.6922 93.635 20.6922C93.8998 20.6922 94.1203 20.7708 94.2975 20.9276C94.4737 21.0848 94.6066 21.3345 94.6947 21.677C94.7784 22.0033 94.8227 22.4314 94.8271 22.9611C94.8271 23.0063 94.864 23.0442 94.9098 23.0442H95.2991C97.3043 23.0442 98.4477 20.7178 97.1852 19.1624C97.1778 19.153 97.17 19.1437 97.1626 19.1349C96.4012 18.2139 95.2361 17.7535 93.669 17.7535C92.1018 17.7535 90.9644 18.1604 90.1257 18.9732C89.2865 19.7865 88.8671 20.7713 88.8671 21.9276C88.8671 22.7901 89.0271 23.5395 89.347 24.1764C89.6669 24.8133 90.0641 25.3426 90.5391 25.7637C91.0136 26.1854 91.615 26.6508 92.344 27.1599C93.2048 27.7874 93.8344 28.3211 94.2316 28.7619C94.6288 29.2027 94.8276 29.7467 94.8276 30.3935C94.8276 30.7856 94.7228 31.1281 94.5131 31.4225C94.3029 31.7164 94.0106 31.8633 93.6355 31.8633C93.3486 31.8633 93.0946 31.7704 92.8741 31.5842C92.6531 31.3984 92.4818 31.1095 92.3607 30.7168C92.2446 30.3428 92.1845 29.8706 92.1791 29.3005C92.1791 29.2553 92.1422 29.218 92.0969 29.218H91.1809C89.6832 29.218 88.6432 30.738 89.221 32.1179C89.2245 32.1262 89.2279 32.1346 89.2313 32.1429C89.5842 32.9759 90.1306 33.6275 90.8704 34.0978C91.6096 34.5681 92.5428 34.8035 93.6685 34.8035C95.2356 34.8035 96.4277 34.3529 97.2448 33.4511C98.0613 32.5499 98.4699 31.4815 98.4699 30.247C98.4699 29.3457 98.2986 28.5668 97.9565 27.9103C97.6139 27.2542 97.2 26.7053 96.7147 26.264L96.7142 26.2625Z" fill="#2EBCC9"/>
<path d="M107.278 26.2625C106.792 25.8217 106.163 25.3367 105.39 24.8074C104.573 24.2197 103.983 23.7395 103.619 23.367C103.255 22.995 103.072 22.5439 103.072 22.0151C103.072 21.6431 103.166 21.3296 103.354 21.0745C103.541 20.82 103.823 20.6922 104.199 20.6922C104.463 20.6922 104.684 20.7708 104.861 20.9276C105.037 21.0848 105.17 21.3345 105.258 21.677C105.342 22.0033 105.386 22.4314 105.391 22.9611C105.391 23.0063 105.428 23.0442 105.473 23.0442H105.863C107.868 23.0442 109.011 20.7178 107.749 19.1624C107.741 19.153 107.733 19.1437 107.726 19.1349C106.965 18.2139 105.8 17.7535 104.233 17.7535C102.665 17.7535 101.528 18.1604 100.689 18.9732C99.85 19.7865 99.4306 20.7713 99.4306 21.9276C99.4306 22.7901 99.5906 23.5395 99.9105 24.1764C100.23 24.8133 100.628 25.3426 101.103 25.7637C101.577 26.1854 102.179 26.6508 102.908 27.1599C103.768 27.7874 104.398 28.3211 104.795 28.7619C105.192 29.2027 105.391 29.7467 105.391 30.3935C105.391 30.7856 105.286 31.1281 105.077 31.4225C104.866 31.7164 104.574 31.8633 104.199 31.8633C103.912 31.8633 103.658 31.7704 103.438 31.5842C103.217 31.3984 103.045 31.1095 102.924 30.7168C102.808 30.3428 102.748 29.8706 102.743 29.3005C102.743 29.2553 102.706 29.218 102.66 29.218H101.744C100.247 29.218 99.2067 30.738 99.7845 32.1179C99.788 32.1262 99.7914 32.1346 99.7949 32.1429C100.148 32.9759 100.694 33.6275 101.434 34.0978C102.173 34.5681 103.106 34.8035 104.232 34.8035C105.799 34.8035 106.991 34.3529 107.808 33.4511C108.625 32.5499 109.033 31.4815 109.033 30.247C109.033 29.3457 108.862 28.5668 108.52 27.9103C108.177 27.2542 107.764 26.7053 107.278 26.264L107.278 26.2625Z" fill="#2EBCC9"/>
<path d="M150.271 26.2625C149.785 25.8217 149.156 25.3367 148.383 24.8074C147.566 24.2197 146.976 23.7395 146.612 23.367C146.248 22.995 146.066 22.5439 146.066 22.0151C146.066 21.6431 146.159 21.3296 146.347 21.0745C146.535 20.82 146.816 20.6922 147.192 20.6922C147.457 20.6922 147.677 20.7708 147.854 20.9276C148.031 21.0848 148.163 21.3345 148.252 21.677C148.335 22.0033 148.38 22.4314 148.384 22.9611C148.384 23.0063 148.421 23.0442 148.467 23.0442H148.856C150.861 23.0442 152.005 20.7178 150.742 19.1624C150.735 19.153 150.727 19.1437 150.719 19.1349C149.958 18.2139 148.793 17.7535 147.226 17.7535C145.659 17.7535 144.521 18.1604 143.682 18.9732C142.843 19.7865 142.424 20.7713 142.424 21.9276C142.424 22.7901 142.584 23.5395 142.904 24.1764C143.224 24.8133 143.621 25.3426 144.096 25.7637C144.57 26.1854 145.172 26.6508 145.901 27.1599C146.762 27.7874 147.391 28.3211 147.788 28.7619C148.186 29.2027 148.384 29.7467 148.384 30.3935C148.384 30.7856 148.28 31.1281 148.07 31.4225C147.86 31.7164 147.567 31.8633 147.192 31.8633C146.905 31.8633 146.651 31.7704 146.431 31.5842C146.21 31.3984 146.039 31.1095 145.918 30.7168C145.801 30.3428 145.741 29.8706 145.736 29.3005C145.736 29.2553 145.699 29.218 145.654 29.218H144.738C143.24 29.218 142.2 30.738 142.778 32.1179C142.781 32.1262 142.785 32.1346 142.788 32.1429C143.141 32.9759 143.687 33.6275 144.427 34.0978C145.166 34.5681 146.1 34.8035 147.225 34.8035C148.792 34.8035 149.985 34.3529 150.802 33.4511C151.618 32.5499 152.027 31.4815 152.027 30.247C152.027 29.3457 151.855 28.5668 151.513 27.9103C151.171 27.2542 150.757 26.7053 150.272 26.264L150.271 26.2625Z" fill="#2EBCC9"/>
<path d="M113.47 13.7257C113.072 13.3729 112.609 13.1965 112.079 13.1965C111.548 13.1965 111.057 13.3729 110.671 13.7257C110.285 14.0786 110.092 14.4899 110.092 14.9602C110.092 15.4305 110.285 15.8669 110.671 16.2094C111.057 16.5524 111.527 16.7239 112.079 16.7239C112.63 16.7239 113.072 16.5524 113.47 16.2094C113.867 15.8669 114.066 15.4501 114.066 14.9602C114.066 14.4702 113.867 14.0786 113.47 13.7257Z" fill="#2EBCC9"/>
<path d="M112.062 18.0468H110.407C110.361 18.0468 110.324 18.0837 110.324 18.1294V32.772C110.324 33.7308 111.102 34.5077 112.062 34.5077C113.023 34.5077 113.801 33.7308 113.801 32.772V19.7826C113.801 18.8238 113.023 18.0468 112.062 18.0468Z" fill="#2EBCC9"/>
<path d="M127.179 17.753C126.428 17.753 125.843 17.9196 125.424 18.2528C125.018 18.5751 124.674 19.0169 124.393 19.5771C124.248 19.1963 124.051 18.8813 123.801 18.6346C123.205 18.0468 122.398 17.753 121.384 17.753C120.677 17.753 120.147 17.8901 119.794 18.1648C119.441 18.4395 119.099 18.8312 118.768 19.3408L118.761 19.3472C118.745 19.3319 118.735 19.3113 118.735 19.2877C118.735 18.6026 118.178 18.0478 117.493 18.0478H115.506C115.46 18.0478 115.424 18.0847 115.424 18.1304V34.5087H117.162C118.122 34.5087 118.9 33.7317 118.9 32.773V30.8638C118.9 30.0603 118.9 28.8258 118.9 27.1599V23.3975C118.9 22.5154 118.978 21.8937 119.132 21.5311C119.286 21.1689 119.607 20.9875 120.093 20.9875C120.512 20.9875 120.805 21.1787 120.97 21.5605C121.135 21.9429 121.219 22.5552 121.219 23.398V34.5092H122.957C123.917 34.5092 124.696 33.7322 124.696 32.7734V30.8642C124.696 30.0608 124.696 28.8263 124.696 27.1604V22.3065C124.726 22.2997 124.752 22.277 124.758 22.2377C124.796 21.9419 124.853 21.7065 124.927 21.5311C125.081 21.1689 125.402 20.9875 125.888 20.9875C126.307 20.9875 126.6 21.1787 126.765 21.5605C126.931 21.9429 127.014 22.5552 127.014 23.398V34.5092H128.752C129.712 34.5092 130.491 33.7322 130.491 32.7734V30.8642C130.491 30.0608 130.491 28.8263 130.491 27.1604V21.5458C130.491 20.1939 130.192 19.2238 129.596 18.6356C129 18.0478 128.194 17.754 127.179 17.754L127.179 17.753Z" fill="#2EBCC9"/>
<path d="M140.739 19.8838C139.978 18.4631 138.647 17.7525 136.749 17.7525C134.851 17.7525 133.52 18.4631 132.759 19.8838C131.997 21.305 131.616 23.4358 131.616 26.2773C131.616 29.1187 131.997 31.25 132.759 32.6707C133.52 34.0919 134.85 34.8021 136.749 34.8021C138.648 34.8021 139.978 34.0919 140.739 32.6707C141.501 31.25 141.882 29.1192 141.882 26.2773C141.882 23.4353 141.501 21.305 140.739 19.8838ZM138.09 29.5988C137.99 30.3826 137.836 30.9316 137.626 31.2451C137.416 31.5591 137.123 31.7154 136.748 31.7154C136.373 31.7154 136.081 31.5586 135.871 31.2451C135.661 30.9321 135.507 30.3831 135.407 29.5988C135.308 28.8155 135.258 27.7078 135.258 26.2773C135.258 24.8467 135.308 23.7395 135.407 22.9557C135.507 22.1724 135.661 21.6234 135.871 21.3094C136.081 20.9964 136.373 20.8391 136.748 20.8391C137.124 20.8391 137.416 20.9964 137.626 21.3094C137.836 21.623 137.99 22.1719 138.09 22.9557C138.189 23.74 138.239 24.8472 138.239 26.2773C138.239 27.7073 138.189 28.8155 138.09 29.5988Z" fill="#2EBCC9"/>
</g>
<defs>
<clipPath id="clip0_33_1107">
<rect width="152.027" height="48" fill="white"/>
</clipPath>
</defs>
</svg>
