<svg width="51" height="16" viewBox="0 0 51 16" fill="none" xmlns="http://www.w3.org/2000/svg">
<g clip-path="url(#clip0_33_1126)">
<path d="M8.00831 15.0496C11.9058 15.0496 15.0653 11.8934 15.0653 8C15.0653 4.10659 11.9058 0.950356 8.00831 0.950356C4.11085 0.950356 0.951342 4.10659 0.951342 8C0.951342 11.8934 4.11085 15.0496 8.00831 15.0496Z" fill="#4A4736"/>
<path d="M8.00831 16C6.92736 16 5.87841 15.7884 4.89104 15.3713C3.93743 14.9684 3.08106 14.3916 2.34556 13.6569C1.61006 12.9221 1.03268 12.0667 0.62933 11.114C0.211817 10.1275 0 9.07983 0 8C0 6.92017 0.211817 5.87232 0.62933 4.88597C1.03268 3.93334 1.61006 3.07786 2.34556 2.34313C3.08106 1.60839 3.93743 1.0316 4.89104 0.628677C5.87841 0.211598 6.92718 0 8.00831 0C9.08943 0 10.1382 0.211598 11.1256 0.628677C12.0792 1.0316 12.9356 1.60839 13.6711 2.34313C14.4066 3.07786 14.9839 3.93334 15.3873 4.88597C15.805 5.87232 16.0166 6.92017 16.0166 8C16.0166 9.07983 15.8048 10.1277 15.3873 11.114C14.9839 12.0667 14.4066 12.9221 13.6711 13.6569C12.9356 14.3916 12.0792 14.9684 11.1256 15.3713C10.1382 15.7886 9.08926 16 8.00831 16ZM8.00831 0.387026C6.97948 0.387026 5.98144 0.588315 5.04199 0.985301C4.13455 1.36866 3.31946 1.91766 2.61947 2.61693C1.91948 3.3162 1.37008 4.13044 0.986149 5.03693C0.588751 5.97541 0.387428 6.97241 0.387428 8.00017C0.387428 9.02793 0.588926 10.0249 0.986149 10.9634C1.3699 11.8699 1.91948 12.6842 2.61947 13.3834C3.31946 14.0827 4.13455 14.6315 5.04199 15.015C5.98144 15.412 6.97948 15.6131 8.00831 15.6131C9.03714 15.6131 10.0352 15.4119 10.9746 15.015C11.8821 14.6317 12.6972 14.0827 13.3971 13.3834C14.0971 12.6842 14.6465 11.8699 15.0305 10.9634C15.4279 10.0249 15.6292 9.02793 15.6292 8.00017C15.6292 6.97241 15.4277 5.97541 15.0305 5.03693C14.6467 4.13044 14.0971 3.3162 13.3971 2.61693C12.6972 1.91766 11.8821 1.36883 10.9746 0.985301C10.0352 0.588315 9.03714 0.387026 8.00831 0.387026Z" fill="#2EBCC9"/>
<path d="M11.6125 3.45651C11.4301 3.35499 11.2066 3.36005 11.0289 3.46961L9.97081 4.1231C9.58408 4.36195 9.35338 4.77554 9.35338 5.22966V10.4978L5.87422 6.92943V10.8495C5.87422 11.2091 5.58247 11.5007 5.22232 11.5007H5.21358V5.3186L8.27767 8.6002C8.72405 8.18417 8.74853 7.48542 8.33207 7.03951L5.89293 4.42713C5.60206 4.11559 5.15778 4.01529 4.76126 4.17132C4.36456 4.32736 4.10814 4.70355 4.10814 5.12954V12.605H5.22215C6.19273 12.605 6.97931 11.8191 6.97931 10.8497V9.64613L9.45342 12.1837C9.72891 12.4663 10.0981 12.6165 10.4758 12.6165C10.6586 12.6165 10.8434 12.5812 11.0205 12.5089C11.5623 12.287 11.9081 11.75 11.9081 11.1649V3.95938C11.9081 3.75075 11.7948 3.55802 11.6124 3.45651H11.6125ZM10.8029 11.1867C10.8029 11.3836 10.6614 11.4624 10.6005 11.4873C10.5711 11.4991 10.5197 11.5149 10.4588 11.5124V5.22966C10.4588 5.16152 10.4941 5.09827 10.5522 5.06245L10.803 4.90746V11.1867H10.8029Z" fill="#2EBCC9"/>
<path d="M19.4958 4.96982V8.05238H19.473L19.0843 6.73306C18.902 6.09208 18.7174 5.45093 18.5302 4.80994C18.459 4.56636 18.2353 4.39911 17.9811 4.39911H17.2666V10.9321C17.2666 11.2473 17.5226 11.5029 17.8382 11.5029H18.4098V7.84942H18.4326L18.7527 8.96578C19.0042 9.81153 19.2518 10.6573 19.4958 11.5029H20.0674C20.383 11.5029 20.639 11.2473 20.639 10.9321V4.39911H20.0674C19.7517 4.39911 19.4958 4.65465 19.4958 4.96982Z" fill="#2EBCC9"/>
<path d="M22.7566 5.91766C22.1236 5.91766 21.6803 6.15452 21.4265 6.6281C21.1727 7.10183 21.0457 7.81211 21.0457 8.75925C21.0457 9.7064 21.1727 10.4168 21.4265 10.8904C21.6803 11.3641 22.1236 11.6009 22.7566 11.6009C23.3895 11.6009 23.8328 11.3641 24.0866 10.8904C24.3405 10.4168 24.4674 9.70656 24.4674 8.75925C24.4674 7.81194 24.3405 7.10183 24.0866 6.6281C23.8328 6.15452 23.3894 5.91766 22.7566 5.91766ZM23.2036 9.86628C23.1705 10.1276 23.119 10.3105 23.0491 10.415C22.979 10.5197 22.8816 10.5718 22.7566 10.5718C22.6316 10.5718 22.5339 10.5195 22.464 10.415C22.394 10.3107 22.3426 10.1277 22.3095 9.86628C22.2764 9.60516 22.2598 9.23594 22.2598 8.75909C22.2598 8.28224 22.2764 7.91318 22.3095 7.6519C22.3426 7.39079 22.394 7.20782 22.464 7.10314C22.5339 6.9988 22.6314 6.94638 22.7566 6.94638C22.8818 6.94638 22.979 6.9988 23.0491 7.10314C23.119 7.20765 23.1705 7.39063 23.2036 7.6519C23.2368 7.91334 23.2534 8.2824 23.2534 8.75909C23.2534 9.23577 23.2368 9.60516 23.2036 9.86628Z" fill="#2EBCC9"/>
<path d="M27.3376 6.01561H27.0579C26.8324 6.01561 26.6423 6.18286 26.6141 6.4063C26.6087 6.44905 26.6032 6.49181 26.5978 6.53489C26.5463 6.97259 26.491 7.41028 26.4323 7.84782L26.1453 10.1407H26.1232L25.8582 7.98509C25.8213 7.67156 25.7919 7.43633 25.77 7.27956C25.748 7.1228 25.7184 6.88118 25.6817 6.55454C25.6758 6.50557 25.6699 6.45691 25.664 6.40826C25.6366 6.18401 25.4461 6.01561 25.22 6.01561H24.3793C24.4456 6.44037 24.4952 6.75701 24.5283 6.96603C24.5615 7.17522 24.6148 7.49858 24.6884 7.93611V7.96543L25.1915 11.1261C25.2259 11.343 25.4133 11.5026 25.6333 11.5026H26.6252C26.8449 11.5026 27.0324 11.3433 27.0672 11.1266C27.1486 10.6183 27.2278 10.11 27.3046 9.60156L27.5806 7.79868C27.6393 7.40668 27.6854 7.11281 27.7186 6.91673C27.7356 6.81549 27.7561 6.68641 27.7803 6.52932C27.8214 6.25903 27.6119 6.01529 27.3381 6.01529L27.3376 6.01561Z" fill="#2EBCC9"/>
<path d="M28.8626 4.39898C28.6546 4.39898 28.4746 4.54232 28.427 4.74462C28.3635 5.01491 28.2982 5.28503 28.2313 5.55515V5.5748H28.332C28.6856 5.5748 29.0166 5.40264 29.2204 5.11417C29.2232 5.11024 29.226 5.10631 29.2288 5.10238C29.4375 4.8067 29.225 4.39898 28.8628 4.39898H28.8626Z" fill="#2EBCC9"/>
<path d="M28.6121 6.01562H28.0326V10.924C28.0326 11.2436 28.292 11.5026 28.6121 11.5026C28.9322 11.5026 29.1915 11.2436 29.1915 10.924V6.59419C29.1915 6.2746 28.9322 6.01562 28.6121 6.01562Z" fill="#2EBCC9"/>
<path d="M32.2381 8.75418C32.0761 8.60724 31.8665 8.44556 31.6089 8.26914C31.3365 8.07322 31.1398 7.91318 31.0184 7.78902C30.897 7.66501 30.8363 7.51464 30.8363 7.33838C30.8363 7.21437 30.8675 7.10986 30.9301 7.02485C30.9927 6.93999 31.0865 6.8974 31.2117 6.8974C31.2999 6.8974 31.3734 6.92361 31.4325 6.97587C31.4912 7.02829 31.5355 7.1115 31.5649 7.22568C31.5928 7.33444 31.6076 7.47712 31.609 7.65371C31.609 7.66878 31.6213 7.68139 31.6366 7.68139H31.7664C32.4348 7.68139 32.8159 6.90592 32.3951 6.38746C32.3926 6.38435 32.39 6.38124 32.3875 6.37829C32.1337 6.07131 31.7454 5.91782 31.223 5.91782C30.7006 5.91782 30.3215 6.05346 30.0419 6.3244C29.7622 6.5955 29.6224 6.92378 29.6224 7.30922C29.6224 7.5967 29.6757 7.84651 29.7823 8.05881C29.889 8.27111 30.0214 8.44753 30.1797 8.58791C30.3379 8.72846 30.5384 8.88359 30.7813 9.05329C31.0683 9.26248 31.2781 9.44037 31.4105 9.58731C31.5429 9.73425 31.6092 9.91559 31.6092 10.1312C31.6092 10.2619 31.5743 10.3761 31.5044 10.4742C31.4343 10.5721 31.3369 10.6211 31.2118 10.6211C31.1162 10.6211 31.0315 10.5902 30.958 10.5281C30.8844 10.4661 30.8273 10.3698 30.7869 10.2389C30.7482 10.1143 30.7282 9.95687 30.7264 9.76685C30.7264 9.75178 30.7141 9.73933 30.699 9.73933H30.3936C29.8944 9.73933 29.5477 10.246 29.7403 10.706C29.7415 10.7087 29.7426 10.7115 29.7438 10.7143C29.8614 10.992 30.0435 11.2092 30.2901 11.366C30.5365 11.5227 30.8476 11.6012 31.2228 11.6012C31.7452 11.6012 32.1426 11.451 32.4149 11.1504C32.6871 10.85 32.8233 10.4938 32.8233 10.0823C32.8233 9.78192 32.7662 9.52228 32.6522 9.30343C32.538 9.08475 32.4 8.90177 32.2382 8.75467L32.2381 8.75418Z" fill="#2EBCC9"/>
<path d="M35.7592 8.75418C35.5973 8.60724 35.3876 8.44556 35.1301 8.26914C34.8577 8.07322 34.661 7.91318 34.5396 7.78902C34.4182 7.66501 34.3575 7.51464 34.3575 7.33838C34.3575 7.21437 34.3886 7.10986 34.4513 7.02485C34.5138 6.93999 34.6077 6.8974 34.7328 6.8974C34.8211 6.8974 34.8946 6.92361 34.9537 6.97587C35.0124 7.02829 35.0567 7.1115 35.0861 7.22568C35.114 7.33444 35.1287 7.47712 35.1302 7.65371C35.1302 7.66878 35.1425 7.68139 35.1578 7.68139H35.2876C35.956 7.68139 36.3371 6.90592 35.9163 6.38746C35.9138 6.38435 35.9112 6.38124 35.9087 6.37829C35.6549 6.07131 35.2666 5.91782 34.7442 5.91782C34.2218 5.91782 33.8426 6.05346 33.5631 6.3244C33.2833 6.5955 33.1435 6.92378 33.1435 7.30922C33.1435 7.5967 33.1969 7.84651 33.3035 8.05881C33.4102 8.27111 33.5426 8.44753 33.7009 8.58791C33.859 8.72846 34.0595 8.88359 34.3025 9.05329C34.5895 9.26248 34.7993 9.44037 34.9317 9.58731C35.0641 9.73425 35.1304 9.91559 35.1304 10.1312C35.1304 10.2619 35.0954 10.3761 35.0255 10.4742C34.9555 10.5721 34.858 10.6211 34.733 10.6211C34.6374 10.6211 34.5527 10.5902 34.4792 10.5281C34.4055 10.4661 34.3484 10.3698 34.3081 10.2389C34.2694 10.1143 34.2493 9.95687 34.2475 9.76685C34.2475 9.75178 34.2352 9.73933 34.2201 9.73933H33.9148C33.4156 9.73933 33.0689 10.246 33.2615 10.706C33.2627 10.7087 33.2638 10.7115 33.265 10.7143C33.3826 10.992 33.5647 11.2092 33.8113 11.366C34.0577 11.5227 34.3688 11.6012 34.744 11.6012C35.2664 11.6012 35.6638 11.451 35.9361 11.1504C36.2083 10.85 36.3445 10.4938 36.3445 10.0823C36.3445 9.78192 36.2874 9.52228 36.1733 9.30343C36.0592 9.08475 35.9212 8.90177 35.7594 8.75467L35.7592 8.75418Z" fill="#2EBCC9"/>
<path d="M50.0903 8.75418C49.9284 8.60724 49.7187 8.44556 49.4612 8.26914C49.1888 8.07322 48.9921 7.91318 48.8707 7.78902C48.7493 7.66501 48.6886 7.51464 48.6886 7.33838C48.6886 7.21437 48.7197 7.10986 48.7824 7.02485C48.8449 6.93999 48.9388 6.8974 49.064 6.8974C49.1522 6.8974 49.2257 6.92361 49.2848 6.97587C49.3435 7.02829 49.3878 7.1115 49.4172 7.22568C49.4451 7.33444 49.4598 7.47712 49.4613 7.65371C49.4613 7.66878 49.4736 7.68139 49.4889 7.68139H49.6187C50.2871 7.68139 50.6682 6.90592 50.2474 6.38746C50.2449 6.38435 50.2423 6.38124 50.2398 6.37829C49.986 6.07131 49.5977 5.91782 49.0753 5.91782C48.5529 5.91782 48.1737 6.05346 47.8942 6.3244C47.6144 6.5955 47.4747 6.92378 47.4747 7.30922C47.4747 7.5967 47.528 7.84651 47.6346 8.05881C47.7413 8.27111 47.8737 8.44753 48.032 8.58791C48.1901 8.72846 48.3906 8.88359 48.6336 9.05329C48.9206 9.26248 49.1304 9.44037 49.2628 9.58731C49.3952 9.73425 49.4615 9.91559 49.4615 10.1312C49.4615 10.2619 49.4265 10.3761 49.3566 10.4742C49.2866 10.5721 49.1891 10.6211 49.0641 10.6211C48.9685 10.6211 48.8838 10.5902 48.8103 10.5281C48.7366 10.4661 48.6796 10.3698 48.6392 10.2389C48.6005 10.1143 48.5805 9.95687 48.5787 9.76685C48.5787 9.75178 48.5663 9.73933 48.5513 9.73933H48.2459C47.7467 9.73933 47.4 10.246 47.5926 10.706C47.5938 10.7087 47.5949 10.7115 47.5961 10.7143C47.7137 10.992 47.8958 11.2092 48.1424 11.366C48.3888 11.5227 48.6999 11.6012 49.0751 11.6012C49.5975 11.6012 49.9949 11.451 50.2672 11.1504C50.5394 10.85 50.6756 10.4938 50.6756 10.0823C50.6756 9.78192 50.6185 9.52228 50.5045 9.30343C50.3903 9.08475 50.2523 8.90177 50.0905 8.75467L50.0903 8.75418Z" fill="#2EBCC9"/>
<path d="M37.8232 4.57524C37.6908 4.45763 37.5362 4.39882 37.3595 4.39882C37.1828 4.39882 37.0191 4.45763 36.8905 4.57524C36.7617 4.69286 36.6974 4.82996 36.6974 4.98673C36.6974 5.1435 36.7617 5.28896 36.8905 5.40313C37.0191 5.51747 37.1756 5.57464 37.3595 5.57464C37.5434 5.57464 37.6906 5.51747 37.8232 5.40313C37.9556 5.28896 38.0219 5.15005 38.0219 4.98673C38.0219 4.82341 37.9556 4.69286 37.8232 4.57524Z" fill="#2EBCC9"/>
<path d="M37.3541 6.01562H36.8022C36.7869 6.01562 36.7746 6.0279 36.7746 6.04314V10.924C36.7746 11.2436 37.034 11.5026 37.3541 11.5026C37.6742 11.5026 37.9336 11.2436 37.9336 10.924V6.59419C37.9336 6.2746 37.6742 6.01562 37.3541 6.01562Z" fill="#2EBCC9"/>
<path d="M42.3929 5.91766C42.1427 5.91766 41.9476 5.97319 41.8078 6.08425C41.6726 6.19171 41.5581 6.33897 41.4643 6.52572C41.4159 6.39876 41.3503 6.29376 41.2669 6.21153C41.0682 6.01561 40.7995 5.91766 40.4612 5.91766C40.2256 5.91766 40.0491 5.96336 39.9314 6.05493C39.8136 6.1465 39.6996 6.27705 39.5892 6.44692L39.5869 6.44905C39.5816 6.44397 39.5782 6.43709 39.5782 6.42923C39.5782 6.20088 39.3928 6.01594 39.1643 6.01594H38.5021C38.4868 6.01594 38.4745 6.02823 38.4745 6.04346V11.5029H39.054C39.3741 11.5029 39.6335 11.2439 39.6335 10.9243V10.2879C39.6335 10.0201 39.6335 9.6086 39.6335 9.05329V7.79917C39.6335 7.50513 39.6592 7.29791 39.7108 7.17702C39.7621 7.05629 39.8689 6.99585 40.0308 6.99585C40.1706 6.99585 40.2682 7.05957 40.3234 7.18685C40.3785 7.31429 40.4062 7.5184 40.4062 7.79933V11.5031H40.9857C41.3058 11.5031 41.5652 11.2441 41.5652 10.9245V10.2881C41.5652 10.0203 41.5652 9.60877 41.5652 9.05345V7.43551C41.5752 7.43322 41.5841 7.42568 41.5859 7.41258C41.5987 7.31396 41.6175 7.2355 41.6425 7.17702C41.6938 7.05629 41.8006 6.99585 41.9626 6.99585C42.1023 6.99585 42.2 7.05957 42.2551 7.18685C42.3102 7.31429 42.3379 7.5184 42.3379 7.79933V11.5031H42.9174C43.2375 11.5031 43.4969 11.2441 43.4969 10.9245V10.2881C43.4969 10.0203 43.4969 9.60877 43.4969 9.05345V7.18193C43.4969 6.7313 43.3975 6.40794 43.1988 6.21186C43.0001 6.01594 42.7314 5.91798 42.3931 5.91798L42.3929 5.91766Z" fill="#2EBCC9"/>
<path d="M46.9131 6.62793C46.6592 6.15436 46.2158 5.91749 45.583 5.91749C44.9502 5.91749 44.5067 6.15436 44.2529 6.62793C43.9991 7.10167 43.8721 7.81194 43.8721 8.75909C43.8721 9.70623 43.9991 10.4167 44.2529 10.8902C44.5067 11.364 44.95 11.6007 45.583 11.6007C46.2159 11.6007 46.6592 11.364 46.9131 10.8902C47.1669 10.4167 47.2939 9.7064 47.2939 8.75909C47.2939 7.81178 47.1669 7.10167 46.9131 6.62793ZM46.0299 9.86627C45.9968 10.1275 45.9452 10.3105 45.8753 10.415C45.8053 10.5197 45.7078 10.5718 45.5828 10.5718C45.4578 10.5718 45.3602 10.5195 45.2903 10.415C45.2202 10.3107 45.1689 10.1277 45.1357 9.86627C45.1026 9.60516 45.086 9.23594 45.086 8.75909C45.086 8.28224 45.1026 7.91318 45.1357 7.6519C45.1689 7.39079 45.2202 7.20782 45.2903 7.10314C45.3602 6.9988 45.4576 6.94638 45.5828 6.94638C45.708 6.94638 45.8053 6.9988 45.8753 7.10314C45.9452 7.20765 45.9968 7.39063 46.0299 7.6519C46.063 7.91334 46.0796 8.2824 46.0796 8.75909C46.0796 9.23577 46.063 9.60516 46.0299 9.86627Z" fill="#2EBCC9"/>
</g>
<defs>
<clipPath id="clip0_33_1126">
<rect width="50.6756" height="16" fill="white"/>
</clipPath>
</defs>
</svg>
