<svg width="115" height="36" viewBox="0 0 115 36" fill="none" xmlns="http://www.w3.org/2000/svg">
<g clip-path="url(#clip0_33_1088)">
<path d="M18.0187 33.8617C26.788 33.8617 33.8969 26.7602 33.8969 18C33.8969 9.23983 26.788 2.1383 18.0187 2.1383C9.24942 2.1383 2.14052 9.23983 2.14052 18C2.14052 26.7602 9.24942 33.8617 18.0187 33.8617Z" fill="#4A4736"/>
<path d="M18.0187 36C15.5866 36 13.2264 35.5239 11.0048 34.5855C8.85921 33.6789 6.93238 32.3811 5.27751 30.728C3.62263 29.0748 2.32352 27.15 1.41599 25.0066C0.476589 22.7869 0 20.4296 0 18C0 15.5704 0.476589 13.2127 1.41599 10.9934C2.32352 8.85002 3.62263 6.92519 5.27751 5.27203C6.93238 3.61887 8.85921 2.32111 11.0048 1.41452C13.2264 0.476095 15.5862 0 18.0187 0C20.4512 0 22.811 0.476095 25.0325 1.41452C27.1782 2.32111 29.105 3.61887 30.7599 5.27203C32.4148 6.92519 33.7139 8.85002 34.6214 10.9934C35.5612 13.2127 36.0374 15.5704 36.0374 18C36.0374 20.4296 35.5608 22.7873 34.6214 25.0066C33.7139 27.15 32.4148 29.0748 30.7599 30.728C29.105 32.3811 27.1782 33.6789 25.0325 34.5855C22.811 35.5243 20.4508 36 18.0187 36ZM18.0187 0.870809C15.7038 0.870809 13.4582 1.32371 11.3445 2.21693C9.30274 3.07948 7.46879 4.31473 5.89381 5.88809C4.31882 7.46144 3.08268 9.29348 2.21884 11.3331C1.32469 13.4447 0.871713 15.6879 0.871713 18.0004C0.871713 20.3129 1.32508 22.5561 2.21884 24.6677C3.08228 26.7073 4.31882 28.5393 5.89381 30.1127C7.46879 31.6861 9.30274 32.9209 11.3445 33.7839C13.4582 34.6771 15.7038 35.1296 18.0187 35.1296C20.3336 35.1296 22.5791 34.6767 24.6929 33.7839C26.7346 32.9213 28.5686 31.6861 30.1436 30.1127C31.7186 28.5393 32.9547 26.7073 33.8185 24.6677C34.7127 22.5561 35.1657 20.3129 35.1657 18.0004C35.1657 15.6879 34.7123 13.4447 33.8185 11.3331C32.9551 9.29348 31.7186 7.46144 30.1436 5.88809C28.5686 4.31473 26.7346 3.07987 24.6929 2.21693C22.5791 1.32371 20.3336 0.870809 18.0187 0.870809Z" fill="#2EBCC9"/>
<path d="M26.1282 7.77714C25.7177 7.54872 25.2148 7.56012 24.8149 7.80662L22.4343 9.27697C21.5642 9.8144 21.0451 10.745 21.0451 11.7667V23.62L13.217 15.5912V24.4114C13.217 25.2204 12.5605 25.8766 11.7502 25.8766H11.7305V11.9668L18.6248 19.3504C19.6291 18.4144 19.6842 16.8422 18.7472 15.8389L13.2591 9.96104C12.6046 9.26007 11.605 9.0344 10.7128 9.38548C9.82026 9.73656 9.24331 10.583 9.24331 11.5415V28.3613H11.7498C13.9336 28.3613 15.7034 26.5929 15.7034 24.4118V21.7038L21.2702 27.4134C21.89 28.0491 22.7208 28.3872 23.5705 28.3872C23.9818 28.3872 24.3977 28.3078 24.796 28.145C26.0152 27.6457 26.7933 26.4376 26.7933 25.121V8.9086C26.7933 8.43919 26.5383 8.00555 26.1278 7.77714H26.1282ZM24.3064 25.1701C24.3064 25.6132 23.9881 25.7905 23.8511 25.8463C23.785 25.8731 23.6693 25.9084 23.5323 25.9029V11.7667C23.5323 11.6134 23.6118 11.4711 23.7425 11.3905L24.3068 11.0418V25.1701H24.3064Z" fill="#2EBCC9"/>
<path d="M43.8655 11.1821V18.1179H43.8142L42.9397 15.1494C42.5295 13.7072 42.1142 12.2646 41.6931 10.8224C41.5328 10.2743 41.0293 9.898 40.4575 9.898H38.8499V24.5973C38.8499 25.3065 39.4258 25.8814 40.136 25.8814H41.4221V17.6612H41.4734L42.1936 20.173C42.7595 22.0759 43.3166 23.9789 43.8655 25.8814H45.1516C45.8618 25.8814 46.4377 25.3065 46.4377 24.5973V9.898H45.1516C44.4413 9.898 43.8655 10.473 43.8655 11.1821Z" fill="#2EBCC9"/>
<path d="M51.2023 13.3147C49.7781 13.3147 48.7807 13.8477 48.2096 14.9132C47.6385 15.9791 47.3528 17.5772 47.3528 19.7083C47.3528 21.8394 47.6385 23.4379 48.2096 24.5034C48.7807 25.5693 49.7781 26.1019 51.2023 26.1019C52.6264 26.1019 53.6239 25.5693 54.195 24.5034C54.766 23.4379 55.0517 21.8398 55.0517 19.7083C55.0517 17.5769 54.766 15.9791 54.195 14.9132C53.6239 13.8477 52.6261 13.3147 51.2023 13.3147ZM52.2082 22.1991C52.1336 22.787 52.0177 23.1987 51.8605 23.4338C51.7028 23.6693 51.4836 23.7866 51.2023 23.7866C50.921 23.7866 50.7013 23.669 50.5441 23.4338C50.3865 23.1991 50.2709 22.7874 50.1964 22.1991C50.1218 21.6116 50.0845 20.7809 50.0845 19.708C50.0845 18.635 50.1218 17.8047 50.1964 17.2168C50.2709 16.6293 50.3865 16.2176 50.5441 15.9821C50.7013 15.7473 50.9206 15.6294 51.2023 15.6294C51.4839 15.6294 51.7028 15.7473 51.8605 15.9821C52.0177 16.2172 52.1336 16.6289 52.2082 17.2168C52.2828 17.805 52.3201 18.6354 52.3201 19.708C52.3201 20.7805 52.2828 21.6116 52.2082 22.1991Z" fill="#2EBCC9"/>
<path d="M61.5096 13.5351H60.8802C60.373 13.5351 59.9452 13.9114 59.8817 14.4142C59.8695 14.5104 59.8573 14.6066 59.8451 14.7035C59.7292 15.6883 59.6048 16.6731 59.4726 17.6576L58.827 22.8165H58.7772L58.181 17.9665C58.0979 17.261 58.0319 16.7317 57.9824 16.379C57.9329 16.0263 57.8665 15.4827 57.7838 14.7477C57.7705 14.6375 57.7572 14.5281 57.7439 14.4186C57.6823 13.914 57.2537 13.5351 56.745 13.5351H54.8535C55.0026 14.4908 55.1141 15.2033 55.1887 15.6736C55.2633 16.1442 55.3832 16.8718 55.549 17.8563V17.9222L56.6808 25.0338C56.7583 25.5218 57.1799 25.8808 57.6749 25.8808H59.9068C60.4011 25.8808 60.823 25.5225 60.9012 25.0349C61.0843 23.8912 61.2626 22.7475 61.4354 21.6035L62.0563 17.547C62.1885 16.665 62.2922 16.0038 62.3668 15.5626C62.4052 15.3349 62.4513 15.0444 62.5056 14.691C62.5982 14.0828 62.1268 13.5344 61.5107 13.5344L61.5096 13.5351Z" fill="#2EBCC9"/>
<path d="M64.9408 9.89771C64.4727 9.89771 64.0678 10.2202 63.9607 10.6754C63.8179 11.2835 63.671 11.8913 63.5204 12.4991V12.5433H63.747C64.5425 12.5433 65.2875 12.1559 65.7459 11.5069C65.7522 11.498 65.7585 11.4892 65.7648 11.4804C66.2343 10.8151 65.7563 9.89771 64.9412 9.89771H64.9408Z" fill="#2EBCC9"/>
<path d="M64.3771 13.5351H63.0733V24.579C63.0733 25.2981 63.6569 25.8808 64.3771 25.8808C65.0973 25.8808 65.681 25.2981 65.681 24.579V14.8369C65.681 14.1178 65.0973 13.5351 64.3771 13.5351Z" fill="#2EBCC9"/>
<path d="M72.5356 19.6969C72.1713 19.3663 71.6995 19.0025 71.12 18.6056C70.5072 18.1648 70.0646 17.8047 69.7914 17.5253C69.5182 17.2463 69.3817 16.9079 69.3817 16.5113C69.3817 16.2323 69.4518 15.9972 69.5928 15.8059C69.7335 15.615 69.9446 15.5192 70.2263 15.5192C70.4249 15.5192 70.5902 15.5781 70.7231 15.6957C70.8553 15.8136 70.955 16.0009 71.021 16.2578C71.0838 16.5025 71.117 16.8235 71.1203 17.2208C71.1203 17.2548 71.148 17.2831 71.1824 17.2831H71.4744C72.9783 17.2831 73.8358 15.5383 72.8889 14.3718C72.8834 14.3648 72.8775 14.3578 72.8719 14.3512C72.3009 13.6605 71.4271 13.3151 70.2517 13.3151C69.0764 13.3151 68.2233 13.6203 67.5942 14.2299C66.9649 14.8399 66.6503 15.5785 66.6503 16.4457C66.6503 17.0926 66.7703 17.6547 67.0103 18.1323C67.2502 18.61 67.5481 19.0069 67.9043 19.3228C68.2602 19.639 68.7113 19.9881 69.258 20.3699C69.9036 20.8406 70.3758 21.2408 70.6737 21.5714C70.9716 21.9021 71.1207 22.3101 71.1207 22.7951C71.1207 23.0892 71.0421 23.3461 70.8848 23.5669C70.7272 23.7873 70.5079 23.8975 70.2266 23.8975C70.0114 23.8975 69.8209 23.8278 69.6556 23.6882C69.4898 23.5488 69.3614 23.3321 69.2705 23.0376C69.1834 22.7571 69.1384 22.4029 69.1343 21.9754C69.1343 21.9415 69.1066 21.9135 69.0727 21.9135H68.3857C67.2624 21.9135 66.4824 23.0535 66.9158 24.0884C66.9183 24.0947 66.9209 24.1009 66.9235 24.1072C67.1882 24.7319 67.5979 25.2207 68.1528 25.5734C68.7072 25.9261 69.4071 26.1027 70.2514 26.1027C71.4267 26.1027 72.3208 25.7647 72.9336 25.0884C73.546 24.4124 73.8524 23.6111 73.8524 22.6853C73.8524 22.0093 73.7239 21.4251 73.4674 20.9327C73.2104 20.4407 72.9 20.029 72.536 19.698L72.5356 19.6969Z" fill="#2EBCC9"/>
<path d="M80.4583 19.6969C80.0939 19.3663 79.6222 19.0025 79.0426 18.6056C78.4298 18.1648 77.9872 17.8047 77.714 17.5253C77.4409 17.2463 77.3043 16.9079 77.3043 16.5113C77.3043 16.2323 77.3744 15.9972 77.5154 15.8059C77.6561 15.615 77.8672 15.5192 78.1489 15.5192C78.3475 15.5192 78.5129 15.5781 78.6458 15.6957C78.7779 15.8136 78.8776 16.0009 78.9437 16.2578C79.0064 16.5025 79.0397 16.8235 79.043 17.2208C79.043 17.2548 79.0707 17.2831 79.105 17.2831H79.397C80.9009 17.2831 81.7584 15.5383 80.8116 14.3718C80.806 14.3648 80.8001 14.3578 80.7946 14.3512C80.2235 13.6605 79.3497 13.3151 78.1744 13.3151C76.999 13.3151 76.1459 13.6203 75.5169 14.2299C74.8875 14.8399 74.573 15.5785 74.573 16.4457C74.573 17.0926 74.6929 17.6547 74.9329 18.1323C75.1728 18.61 75.4707 19.0069 75.827 19.3228C76.1828 19.639 76.6339 19.9881 77.1806 20.3699C77.8263 20.8406 78.2984 21.2408 78.5963 21.5714C78.8942 21.9021 79.0433 22.3101 79.0433 22.7951C79.0433 23.0892 78.9647 23.3461 78.8075 23.5669C78.6498 23.7873 78.4306 23.8975 78.1493 23.8975C77.9341 23.8975 77.7436 23.8278 77.5782 23.6882C77.4125 23.5488 77.284 23.3321 77.1932 23.0376C77.1061 22.7571 77.061 22.4029 77.057 21.9754C77.057 21.9415 77.0293 21.9135 76.9953 21.9135H76.3083C75.185 21.9135 74.405 23.0535 74.8384 24.0884C74.841 24.0947 74.8436 24.1009 74.8461 24.1072C75.1108 24.7319 75.5206 25.2207 76.0754 25.5734C76.6299 25.9261 77.3298 26.1027 78.174 26.1027C79.3494 26.1027 80.2434 25.7647 80.8562 25.0884C81.4686 24.4124 81.775 23.6111 81.775 22.6853C81.775 22.0093 81.6466 21.4251 81.39 20.9327C81.1331 20.4407 80.8226 20.029 80.4587 19.698L80.4583 19.6969Z" fill="#2EBCC9"/>
<path d="M112.703 19.6969C112.339 19.3663 111.867 19.0025 111.288 18.6056C110.675 18.1648 110.232 17.8047 109.959 17.5253C109.686 17.2463 109.549 16.9079 109.549 16.5113C109.549 16.2323 109.619 15.9972 109.76 15.8059C109.901 15.615 110.112 15.5192 110.394 15.5192C110.592 15.5192 110.758 15.5781 110.891 15.6957C111.023 15.8136 111.123 16.0009 111.189 16.2578C111.251 16.5025 111.285 16.8235 111.288 17.2208C111.288 17.2548 111.316 17.2831 111.35 17.2831H111.642C113.146 17.2831 114.003 15.5383 113.057 14.3718C113.051 14.3648 113.045 14.3578 113.04 14.3512C112.468 13.6605 111.595 13.3151 110.419 13.3151C109.244 13.3151 108.391 13.6203 107.762 14.2299C107.132 14.8399 106.818 15.5785 106.818 16.4457C106.818 17.0926 106.938 17.6547 107.178 18.1323C107.418 18.61 107.716 19.0069 108.072 19.3228C108.428 19.639 108.879 19.9881 109.426 20.3699C110.071 20.8406 110.543 21.2408 110.841 21.5714C111.139 21.9021 111.288 22.3101 111.288 22.7951C111.288 23.0892 111.21 23.3461 111.052 23.5669C110.895 23.7873 110.676 23.8975 110.394 23.8975C110.179 23.8975 109.989 23.8278 109.823 23.6882C109.657 23.5488 109.529 23.3321 109.438 23.0376C109.351 22.7571 109.306 22.4029 109.302 21.9754C109.302 21.9415 109.274 21.9135 109.24 21.9135H108.553C107.43 21.9135 106.65 23.0535 107.083 24.0884C107.086 24.0947 107.089 24.1009 107.091 24.1072C107.356 24.7319 107.766 25.2207 108.32 25.5734C108.875 25.9261 109.575 26.1027 110.419 26.1027C111.594 26.1027 112.488 25.7647 113.101 25.0884C113.714 24.4124 114.02 23.6111 114.02 22.6853C114.02 22.0093 113.892 21.4251 113.635 20.9327C113.378 20.4407 113.068 20.029 112.704 19.698L112.703 19.6969Z" fill="#2EBCC9"/>
<path d="M85.1022 10.2943C84.8042 10.0297 84.4565 9.89735 84.0589 9.89735C83.6614 9.89735 83.293 10.0297 83.0036 10.2943C82.7138 10.5589 82.5691 10.8674 82.5691 11.2201C82.5691 11.5729 82.7138 11.9002 83.0036 12.1571C83.293 12.4143 83.6451 12.5429 84.0589 12.5429C84.4728 12.5429 84.8039 12.4143 85.1022 12.1571C85.4001 11.9002 85.5492 11.5876 85.5492 11.2201C85.5492 10.8527 85.4001 10.5589 85.1022 10.2943Z" fill="#2EBCC9"/>
<path d="M84.0468 13.5351H82.8049C82.7706 13.5351 82.7429 13.5628 82.7429 13.5971V24.579C82.7429 25.2981 83.3266 25.8808 84.0468 25.8808C84.767 25.8808 85.3506 25.2981 85.3506 24.579V14.8369C85.3506 14.1178 84.767 13.5351 84.0468 13.5351Z" fill="#2EBCC9"/>
<path d="M95.384 13.3147C94.8211 13.3147 94.3821 13.4397 94.0676 13.6896C93.7635 13.9313 93.5058 14.2627 93.2946 14.6829C93.1857 14.3972 93.0381 14.161 92.8506 13.9759C92.4035 13.5351 91.7989 13.3147 91.0377 13.3147C90.5076 13.3147 90.1104 13.4176 89.8457 13.6236C89.5806 13.8296 89.3241 14.1234 89.0757 14.5056L89.0705 14.5104C89.0587 14.4989 89.0509 14.4835 89.0509 14.4658C89.0509 13.952 88.6338 13.5359 88.1196 13.5359H86.6297C86.5954 13.5359 86.5677 13.5635 86.5677 13.5978V25.8815H87.8715C88.5917 25.8815 89.1753 25.2988 89.1753 24.5797V23.1478C89.1753 22.5452 89.1753 21.6194 89.1753 20.3699V17.5481C89.1753 16.8865 89.2333 16.4203 89.3492 16.1483C89.4647 15.8767 89.705 15.7407 90.0694 15.7407C90.3839 15.7407 90.6036 15.884 90.7276 16.1704C90.8516 16.4572 90.914 16.9164 90.914 17.5485V25.8819H92.2178C92.938 25.8819 93.5217 25.2992 93.5217 24.5801V23.1482C93.5217 22.5456 93.5217 21.6197 93.5217 20.3703V16.7299C93.5442 16.7247 93.5641 16.7078 93.5682 16.6783C93.597 16.4564 93.6394 16.2799 93.6955 16.1483C93.8111 15.8767 94.0514 15.7407 94.4157 15.7407C94.7302 15.7407 94.9499 15.884 95.0739 16.1704C95.198 16.4572 95.2603 16.9164 95.2603 17.5485V25.8819H96.5642C97.2844 25.8819 97.868 25.2992 97.868 24.5801V23.1482C97.868 22.5456 97.868 21.6197 97.868 20.3703V16.1594C97.868 15.1454 97.6443 14.4179 97.1973 13.9767C96.7502 13.5359 96.1456 13.3155 95.3844 13.3155L95.384 13.3147Z" fill="#2EBCC9"/>
<path d="M105.554 14.9128C104.983 13.8473 103.985 13.3144 102.562 13.3144C101.138 13.3144 100.14 13.8473 99.569 14.9128C98.998 15.9788 98.7122 17.5769 98.7122 19.7079C98.7122 21.839 98.998 23.4375 99.569 24.5031C100.14 25.569 101.138 26.1015 102.562 26.1015C103.986 26.1015 104.983 25.569 105.554 24.5031C106.125 23.4375 106.411 21.8394 106.411 19.7079C106.411 17.5765 106.125 15.9788 105.554 14.9128ZM103.567 22.1991C103.493 22.787 103.377 23.1987 103.22 23.4338C103.062 23.6693 102.843 23.7866 102.561 23.7866C102.28 23.7866 102.06 23.669 101.903 23.4338C101.746 23.199 101.63 22.7874 101.555 22.1991C101.481 21.6116 101.444 20.7809 101.444 19.7079C101.444 18.635 101.481 17.8047 101.555 17.2168C101.63 16.6293 101.746 16.2176 101.903 15.9821C102.06 15.7473 102.28 15.6293 102.561 15.6293C102.843 15.6293 103.062 15.7473 103.22 15.9821C103.377 16.2172 103.493 16.6289 103.567 17.2168C103.642 17.805 103.679 18.6354 103.679 19.7079C103.679 20.7805 103.642 21.6116 103.567 22.1991Z" fill="#2EBCC9"/>
</g>
<defs>
<clipPath id="clip0_33_1088">
<rect width="114.02" height="36" fill="white"/>
</clipPath>
</defs>
</svg>
