<svg width="25" height="24" viewBox="0 0 25 24" fill="none" xmlns="http://www.w3.org/2000/svg">
<g clip-path="url(#clip0_9_1484)">
<path d="M12.0521 22.5745C17.9176 22.5745 22.6725 17.8401 22.6725 12C22.6725 6.15988 17.9176 1.42553 12.0521 1.42553C6.18663 1.42553 1.43172 6.15988 1.43172 12C1.43172 17.8401 6.18663 22.5745 12.0521 22.5745Z" fill="#4A4736"/>
<path d="M12.0521 24C10.4253 24 8.84672 23.6826 7.36077 23.057C5.92563 22.4526 4.63684 21.5874 3.52995 20.4853C2.42306 19.3832 1.55413 18.1 0.947111 16.671C0.318775 15.1913 0 13.6197 0 12C0 10.3803 0.318775 8.80847 0.947111 7.32895C1.55413 5.90001 2.42306 4.6168 3.52995 3.51469C4.63684 2.41258 5.92563 1.54741 7.36077 0.943016C8.84672 0.317396 10.4251 0 12.0521 0C13.6791 0 15.2575 0.317396 16.7434 0.943016C18.1786 1.54741 19.4674 2.41258 20.5743 3.51469C21.6812 4.6168 22.5501 5.90001 23.1571 7.32895C23.7857 8.80847 24.1042 10.3803 24.1042 12C24.1042 13.6197 23.7854 15.1915 23.1571 16.671C22.5501 18.1 21.6812 19.3832 20.5743 20.4853C19.4674 21.5874 18.1786 22.4526 16.7434 23.057C15.2575 23.6829 13.6789 24 12.0521 24ZM12.0521 0.580539C10.5038 0.580539 9.00177 0.882472 7.58794 1.47795C6.22229 2.05299 4.99563 2.87649 3.94217 3.92539C2.88871 4.97429 2.0619 6.19565 1.48411 7.5554C0.886041 8.96311 0.58306 10.4586 0.58306 12.0003C0.58306 13.5419 0.886304 15.0374 1.48411 16.4451C2.06164 17.8049 2.88871 19.0262 3.94217 20.0751C4.99563 21.124 6.22229 21.9473 7.58794 22.5226C9.00177 23.1181 10.5038 23.4197 12.0521 23.4197C13.6004 23.4197 15.1024 23.1178 16.5163 22.5226C17.8819 21.9475 19.1086 21.124 20.162 20.0751C21.2155 19.0262 22.0423 17.8049 22.6201 16.4451C23.2182 15.0374 23.5212 13.5419 23.5212 12.0003C23.5212 10.4586 23.2179 8.96311 22.6201 7.5554C22.0426 6.19565 21.2155 4.97429 20.162 3.92539C19.1086 2.87649 17.8819 2.05325 16.5163 1.47795C15.1024 0.882472 13.6004 0.580539 12.0521 0.580539Z" fill="#2EBCC9"/>
<path d="M17.4763 5.18476C17.2017 5.03248 16.8653 5.04008 16.5979 5.20441L15.0056 6.18465C14.4236 6.54293 14.0764 7.16331 14.0764 7.84449V15.7466L8.84042 10.3941V16.2742C8.84042 16.8136 8.40134 17.2511 7.85935 17.2511H7.84619V7.9779L12.4575 12.9003C13.1293 12.2762 13.1661 11.2281 12.5394 10.5593L8.86858 6.64069C8.43083 6.17338 7.76222 6.02293 7.16547 6.25698C6.56846 6.49103 6.18256 7.05532 6.18256 7.69431V18.9075H7.85908C9.31976 18.9075 10.5035 17.7286 10.5035 16.2745V14.4692L14.2269 18.2756C14.6415 18.6994 15.1972 18.9248 15.7655 18.9248C16.0406 18.9248 16.3189 18.8719 16.5852 18.7634C17.4007 18.4305 17.9212 17.6251 17.9212 16.7473V5.93906C17.9212 5.62612 17.7506 5.33703 17.476 5.18476H17.4763ZM16.2578 16.7801C16.2578 17.0755 16.0448 17.1937 15.9532 17.2309C15.909 17.2487 15.8316 17.2723 15.74 17.2686V7.84449C15.74 7.74227 15.7932 7.6474 15.8806 7.59367L16.258 7.36119V16.7801H16.2578Z" fill="#2EBCC9"/>
</g>
<defs>
<clipPath id="clip0_9_1484">
<rect width="24.1042" height="24" fill="white"/>
</clipPath>
</defs>
</svg>
