<svg width="8" height="8" viewBox="0 0 8 8" fill="none" xmlns="http://www.w3.org/2000/svg">
<g clip-path="url(#clip0_9_1482)">
<path d="M4 7.49229C5.9467 7.49229 7.52482 5.92099 7.52482 3.9827C7.52482 2.04442 5.9467 0.473122 4 0.473122C2.05329 0.473122 0.475174 2.04442 0.475174 3.9827C0.475174 5.92099 2.05329 7.49229 4 7.49229Z" fill="#4A4736"/>
<path d="M4 7.96541C3.46009 7.96541 2.93616 7.86007 2.44298 7.65243C1.96667 7.45184 1.53893 7.1647 1.17156 6.79891C0.804194 6.43313 0.515802 6.00725 0.314339 5.53299C0.105799 5.04186 0 4.52029 0 3.98271C0 3.44513 0.105799 2.92346 0.314339 2.43242C0.515802 1.95817 0.804194 1.53228 1.17156 1.1665C1.53893 0.800717 1.96667 0.513572 2.44298 0.31298C2.93616 0.105341 3.46 0 4 0C4.54 0 5.06384 0.105341 5.55702 0.31298C6.03333 0.513572 6.46107 0.800717 6.82844 1.1665C7.19581 1.53228 7.4842 1.95817 7.68566 2.43242C7.89429 2.92346 8 3.44513 8 3.98271C8 4.52029 7.8942 5.04195 7.68566 5.53299C7.4842 6.00725 7.19581 6.43313 6.82844 6.79891C6.46107 7.1647 6.03333 7.45184 5.55702 7.65243C5.06384 7.86016 4.53991 7.96541 4 7.96541ZM4 0.192677C3.48612 0.192677 2.98762 0.292886 2.51838 0.49052C2.06513 0.68137 1.65801 0.954684 1.30838 1.30281C0.958742 1.65093 0.684329 2.05629 0.492563 2.50758C0.29407 2.97479 0.193513 3.47113 0.193513 3.98279C0.193513 4.49445 0.294157 4.9908 0.492563 5.45801C0.684242 5.9093 0.958742 6.31466 1.30838 6.66278C1.65801 7.0109 2.06513 7.28413 2.51838 7.47507C2.98762 7.6727 3.48612 7.77282 4 7.77282C4.51388 7.77282 5.01238 7.67261 5.48162 7.47507C5.93487 7.28422 6.34199 7.0109 6.69162 6.66278C7.04126 6.31466 7.31567 5.9093 7.50744 5.45801C7.70593 4.9908 7.80649 4.49445 7.80649 3.98279C7.80649 3.47113 7.70584 2.97479 7.50744 2.50758C7.31576 2.05629 7.04126 1.65093 6.69162 1.30281C6.34199 0.954684 5.93487 0.681457 5.48162 0.49052C5.01238 0.292886 4.51388 0.192677 4 0.192677Z" fill="#2EBCC9"/>
<path d="M5.73967 1.69568C5.64854 1.64514 5.53689 1.64766 5.44813 1.7022L4.91966 2.02753C4.7265 2.14645 4.61126 2.35234 4.61126 2.57842V5.20109L2.87349 3.42463V5.37619C2.87349 5.55521 2.72776 5.70039 2.54788 5.70039H2.54351V2.6227L4.07397 4.25641C4.29692 4.04929 4.30915 3.70143 4.10114 3.47944L2.88283 2.17889C2.73755 2.02379 2.51564 1.97386 2.31758 2.05154C2.11944 2.12922 1.99136 2.31651 1.99136 2.52858V6.25015H2.54779C3.03258 6.25015 3.42546 5.85888 3.42546 5.37628V4.77711L4.66123 6.04042C4.79883 6.18108 4.98326 6.25589 5.17188 6.25589C5.26318 6.25589 5.35552 6.23832 5.44394 6.20231C5.71459 6.09183 5.88731 5.82452 5.88731 5.5332V1.94603C5.88731 1.84216 5.8307 1.74622 5.73958 1.69568H5.73967ZM5.33525 5.54408C5.33525 5.64211 5.26458 5.68134 5.23417 5.69369C5.21949 5.69961 5.19381 5.70744 5.16341 5.70622V2.57842C5.16341 2.5445 5.18105 2.51301 5.21006 2.49518L5.33534 2.41802V5.54408H5.33525Z" fill="#2EBCC9"/>
</g>
<defs>
<clipPath id="clip0_9_1482">
<rect width="8" height="8" fill="white"/>
</clipPath>
</defs>
</svg>
