<svg width="48" height="48" viewBox="0 0 48 48" fill="none" xmlns="http://www.w3.org/2000/svg">
<g clip-path="url(#clip0_9_1480)">
<path d="M23.9456 45.1489C35.5994 45.1489 45.0467 35.6802 45.0467 24C45.0467 12.3198 35.5994 2.85107 23.9456 2.85107C12.2919 2.85107 2.8446 12.3198 2.8446 24C2.8446 35.6802 12.2919 45.1489 23.9456 45.1489Z" fill="#4A4736"/>
<path d="M23.9456 48C20.7135 48 17.577 47.3652 14.6247 46.114C11.7733 44.9052 9.21268 43.1748 7.01345 40.9706C4.81423 38.7664 3.0878 36.2 1.88176 33.3421C0.633355 30.3825 0 27.2395 0 24C0 20.7605 0.633355 17.6169 1.88176 14.6579C3.0878 11.8 4.81423 9.23359 7.01345 7.02938C9.21268 4.82516 11.7733 3.09481 14.6247 1.88603C17.577 0.634793 20.713 0 23.9456 0C27.1783 0 30.3142 0.634793 33.2666 1.88603C36.118 3.09481 38.6786 4.82516 40.8778 7.02938C43.077 9.23359 44.8035 11.8 46.0095 14.6579C47.2584 17.6169 47.8913 20.7605 47.8913 24C47.8913 27.2395 47.2579 30.3831 46.0095 33.3421C44.8035 36.2 43.077 38.7664 40.8778 40.9706C38.6786 43.1748 36.118 44.9052 33.2666 46.114C30.3142 47.3657 27.1778 48 23.9456 48ZM23.9456 1.16108C20.8693 1.16108 17.8851 1.76494 15.076 2.9559C12.3627 4.10597 9.92553 5.75298 7.83247 7.85078C5.73942 9.94859 4.09667 12.3913 2.94868 15.1108C1.76042 17.9262 1.15845 20.9172 1.15845 24.0005C1.15845 27.0838 1.76095 30.0748 2.94868 32.8902C4.09615 35.6097 5.73942 38.0525 7.83247 40.1503C9.92553 42.2481 12.3627 43.8946 15.076 45.0451C17.8851 46.2361 20.8693 46.8394 23.9456 46.8394C27.0219 46.8394 30.0062 46.2356 32.8152 45.0451C35.5286 43.8951 37.9657 42.2481 40.0588 40.1503C42.1518 38.0525 43.7946 35.6097 44.9426 32.8902C46.1308 30.0748 46.7328 27.0838 46.7328 24.0005C46.7328 20.9172 46.1303 17.9262 44.9426 15.1108C43.7951 12.3913 42.1518 9.94859 40.0588 7.85078C37.9657 5.75298 35.5286 4.1065 32.8152 2.9559C30.0062 1.76494 27.0219 1.16108 23.9456 1.16108Z" fill="#2EBCC9"/>
<path d="M34.7226 10.3695C34.1771 10.065 33.5087 10.0802 32.9774 10.4088L29.8137 12.3693C28.6574 13.0859 27.9675 14.3266 27.9675 15.689V31.4933L17.5645 20.7883V32.5485C17.5645 33.6273 16.6921 34.5021 15.6153 34.5021H15.5891V15.9558L24.7511 25.8006C26.0858 24.5525 26.159 22.4563 24.9137 21.1185L17.6205 13.2814C16.7507 12.3467 15.4223 12.0459 14.2366 12.514C13.0505 12.9821 12.2838 14.1106 12.2838 15.3886V37.815H15.6148C18.5169 37.815 20.8688 35.4572 20.8688 32.549V28.9384L28.2667 36.5512C29.0904 37.3988 30.1945 37.8496 31.3236 37.8496C31.8702 37.8496 32.423 37.7437 32.9523 37.5267C34.5725 36.861 35.6065 35.2501 35.6065 33.4946V11.8781C35.6065 11.2522 35.2676 10.6741 34.7221 10.3695H34.7226ZM32.3016 33.5602C32.3016 34.1509 31.8785 34.3873 31.6965 34.4618C31.6087 34.4974 31.4549 34.5446 31.2729 34.5372V15.689C31.2729 15.4845 31.3785 15.2948 31.5522 15.1873L32.3022 14.7224V33.5602H32.3016Z" fill="#2EBCC9"/>
</g>
<defs>
<clipPath id="clip0_9_1480">
<rect width="47.8913" height="48" fill="white"/>
</clipPath>
</defs>
</svg>
