<svg width="65" height="64" viewBox="0 0 65 64" fill="none" xmlns="http://www.w3.org/2000/svg">
<g clip-path="url(#clip0_9_1479)">
<path d="M32.0332 60.1986C47.623 60.1986 60.2611 47.5737 60.2611 32C60.2611 16.4264 47.623 3.80142 32.0332 3.80142C16.4434 3.80142 3.80536 16.4264 3.80536 32C3.80536 47.5737 16.4434 60.1986 32.0332 60.1986Z" fill="#4A4736"/>
<path d="M32.0332 64C27.7094 64 23.5137 63.1536 19.5642 61.4853C15.7497 59.8736 12.3242 57.5664 9.38223 54.6275C6.44023 51.6885 4.1307 48.2666 2.51732 44.4561C0.84727 40.51 0 36.3193 0 32C0 27.6807 0.84727 23.4893 2.51732 19.5439C4.1307 15.7334 6.44023 12.3115 9.38223 9.3725C12.3242 6.43355 15.7497 4.12642 19.5642 2.51471C23.5137 0.846391 27.7087 0 32.0332 0C36.3577 0 40.5528 0.846391 44.5023 2.51471C48.3168 4.12642 51.7422 6.43355 54.6842 9.3725C57.6262 12.3115 59.9358 15.7334 61.5491 19.5439C63.2199 23.4893 64.0665 27.6807 64.0665 32C64.0665 36.3193 63.2192 40.5107 61.5491 44.4561C59.9358 48.2666 57.6262 51.6885 54.6842 54.6275C51.7422 57.5664 48.3168 59.8736 44.5023 61.4853C40.5528 63.1543 36.357 64 32.0332 64ZM32.0332 1.54811C27.9179 1.54811 23.9257 2.35326 20.168 3.9412C16.5382 5.47463 13.2779 7.67063 10.4779 10.4677C7.6779 13.2648 5.48032 16.5217 3.9446 20.1477C2.355 23.9016 1.54971 27.8897 1.54971 32.0007C1.54971 36.1117 2.3557 40.0998 3.9446 43.8537C5.47962 47.4797 7.6779 50.7366 10.4779 53.5337C13.2779 56.3308 16.5382 58.5261 20.168 60.0602C23.9257 61.6481 27.9179 62.4526 32.0332 62.4526C36.1485 62.4526 40.1407 61.6474 43.8985 60.0602C47.5283 58.5268 50.7886 56.3308 53.5886 53.5337C56.3886 50.7366 58.5861 47.4797 60.1219 43.8537C61.7115 40.0998 62.5167 36.1117 62.5167 32.0007C62.5167 27.8897 61.7108 23.9016 60.1219 20.1477C58.5868 16.5217 56.3886 13.2648 53.5886 10.4677C50.7886 7.67063 47.5283 5.47533 43.8985 3.9412C40.1407 2.35326 36.1485 1.54811 32.0332 1.54811Z" fill="#2EBCC9"/>
<path d="M46.4501 13.826C45.7204 13.4199 44.8262 13.4402 44.1154 13.8784L39.8832 16.4924C38.3363 17.4478 37.4135 19.1022 37.4135 20.9186V41.991L23.4969 27.7177V43.398C23.4969 44.8363 22.3299 46.0028 20.8893 46.0028H20.8543V21.2744L33.1107 34.4008C34.8962 32.7367 34.9941 29.9417 33.3283 28.158L23.5717 17.7085C22.4082 16.4623 20.6311 16.0612 19.045 16.6853C17.4582 17.3094 16.4326 18.8142 16.4326 20.5182V50.42H20.8886C24.7709 50.42 27.9172 47.2763 27.9172 43.3987V38.5845L37.8137 48.7349C38.9156 49.8651 40.3926 50.4661 41.9031 50.4661C42.6342 50.4661 43.3738 50.325 44.0818 50.0356C46.2493 49.148 47.6325 47.0002 47.6325 44.6595V15.8375C47.6325 15.003 47.1791 14.2321 46.4494 13.826H46.4501ZM43.2115 44.7469C43.2115 45.5346 42.6454 45.8498 42.402 45.949C42.2844 45.9966 42.0787 46.0595 41.8353 46.0497V20.9186C41.8353 20.6461 41.9766 20.3931 42.2089 20.2498L43.2122 19.6298V44.7469H43.2115Z" fill="#2EBCC9"/>
</g>
<defs>
<clipPath id="clip0_9_1479">
<rect width="64.0665" height="64" fill="white"/>
</clipPath>
</defs>
</svg>
