<svg width="37" height="36" viewBox="0 0 37 36" fill="none" xmlns="http://www.w3.org/2000/svg">
<g clip-path="url(#clip0_9_1481)">
<path d="M18.0782 33.8617C26.8764 33.8617 34.0087 26.7602 34.0087 18C34.0087 9.23983 26.8764 2.1383 18.0782 2.1383C9.27995 2.1383 2.14758 9.23983 2.14758 18C2.14758 26.7602 9.27995 33.8617 18.0782 33.8617Z" fill="#4A4736"/>
<path d="M18.0782 36C15.638 36 13.2701 35.5239 11.0412 34.5855C8.88844 33.6789 6.95526 32.3811 5.29492 30.728C3.63458 29.0748 2.33119 27.15 1.42067 25.0066C0.478162 22.7869 0 20.4296 0 18C0 15.5704 0.478162 13.2127 1.42067 10.9934C2.33119 8.85002 3.63458 6.92519 5.29492 5.27203C6.95526 3.61887 8.88844 2.32111 11.0412 1.41452C13.2701 0.476095 15.6376 0 18.0782 0C20.5187 0 22.8862 0.476095 25.1152 1.41452C27.2679 2.32111 29.2011 3.61887 30.8614 5.27203C32.5217 6.92519 33.8251 8.85002 34.7357 10.9934C35.6786 13.2127 36.1563 15.5704 36.1563 18C36.1563 20.4296 35.6782 22.7873 34.7357 25.0066C33.8251 27.15 32.5217 29.0748 30.8614 30.728C29.2011 32.3811 27.2679 33.6789 25.1152 34.5855C22.8862 35.5243 20.5183 36 18.0782 36ZM18.0782 0.870809C15.7557 0.870809 13.5027 1.32371 11.3819 2.21693C9.33344 3.07948 7.49344 4.31473 5.91326 5.88809C4.33307 7.46144 3.09285 9.29348 2.22616 11.3331C1.32906 13.4447 0.87459 15.6879 0.87459 18.0004C0.87459 20.3129 1.32946 22.5561 2.22616 24.6677C3.09246 26.7073 4.33307 28.5393 5.91326 30.1127C7.49344 31.6861 9.33344 32.9209 11.3819 33.7839C13.5027 34.6771 15.7557 35.1296 18.0782 35.1296C20.4007 35.1296 22.6537 34.6767 24.7744 33.7839C26.8229 32.9213 28.6629 31.6861 30.2431 30.1127C31.8232 28.5393 33.0635 26.7073 33.9302 24.6677C34.8273 22.5561 35.2817 20.3129 35.2817 18.0004C35.2817 15.6879 34.8269 13.4447 33.9302 11.3331C33.0639 9.29348 31.8232 7.46144 30.2431 5.88809C28.6629 4.31473 26.8229 3.07987 24.7744 2.21693C22.6537 1.32371 20.4007 0.870809 18.0782 0.870809Z" fill="#2EBCC9"/>
<path d="M26.2144 7.77713C25.8026 7.54872 25.298 7.56012 24.8968 7.80662L22.5084 9.27697C21.6353 9.81439 21.1145 10.745 21.1145 11.7667V23.62L13.2606 15.5912V24.4114C13.2606 25.2204 12.602 25.8766 11.789 25.8766H11.7692V11.9668L18.6862 19.3504C19.6939 18.4144 19.7491 16.8422 18.809 15.8389L13.3028 9.96104C12.6462 9.26006 11.6433 9.0344 10.7482 9.38548C9.85265 9.73655 9.2738 10.583 9.2738 11.5415V28.3613H11.7886C13.9796 28.3613 15.7552 26.5929 15.7552 24.4117V21.7038L21.3404 27.4134C21.9623 28.0491 22.7958 28.3872 23.6483 28.3872C24.0609 28.3872 24.4783 28.3078 24.8778 28.145C26.1011 27.6457 26.8817 26.4376 26.8817 25.121V8.9086C26.8817 8.43918 26.6258 8.00555 26.214 7.77713H26.2144ZM24.3866 25.1701C24.3866 25.6132 24.0672 25.7905 23.9298 25.8463C23.8635 25.8731 23.7474 25.9084 23.61 25.9029V11.7667C23.61 11.6134 23.6897 11.4711 23.8208 11.3905L24.387 11.0418V25.1701H24.3866Z" fill="#2EBCC9"/>
</g>
<defs>
<clipPath id="clip0_9_1481">
<rect width="36.1563" height="36" fill="white"/>
</clipPath>
</defs>
</svg>
