<svg width="16" height="16" viewBox="0 0 16 16" fill="none" xmlns="http://www.w3.org/2000/svg">
<g clip-path="url(#clip0_9_1483)">
<path d="M7.99999 14.9846C11.8934 14.9846 15.0496 11.842 15.0496 7.96541C15.0496 4.08884 11.8934 0.946247 7.99999 0.946247C4.10658 0.946247 0.950348 4.08884 0.950348 7.96541C0.950348 11.842 4.10658 14.9846 7.99999 14.9846Z" fill="#4A4736"/>
<path d="M8 15.9308C6.92017 15.9308 5.87232 15.7201 4.88597 15.3049C3.93334 14.9037 3.07786 14.3294 2.34313 13.5978C1.60839 12.8663 1.0316 12.0145 0.628677 11.066C0.211598 10.0837 0 9.04057 0 7.96541C0 6.89025 0.211598 5.84693 0.628677 4.86484C1.0316 3.91634 1.60839 3.06456 2.34313 2.333C3.07786 1.60143 3.93334 1.02714 4.88597 0.625959C5.87232 0.210683 6.92 0 8 0C9.08 0 10.1277 0.210683 11.114 0.625959C12.0667 1.02714 12.9221 1.60143 13.6569 2.333C14.3916 3.06456 14.9684 3.91634 15.3713 4.86484C15.7886 5.84693 16 6.89025 16 7.96541C16 9.04057 15.7884 10.0839 15.3713 11.066C14.9684 12.0145 14.3916 12.8663 13.6569 13.5978C12.9221 14.3294 12.0667 14.9037 11.114 15.3049C10.1277 15.7203 9.07983 15.9308 8 15.9308ZM8 0.385353C6.97224 0.385353 5.97523 0.585771 5.03676 0.981041C4.13026 1.36274 3.31602 1.90937 2.61675 2.60561C1.91748 3.30186 1.36866 4.11258 0.985126 5.01516C0.58814 5.94957 0.387026 6.94227 0.387026 7.96559C0.387026 8.9889 0.588315 9.9816 0.985126 10.916C1.36848 11.8186 1.91748 12.6293 2.61675 13.3256C3.31602 14.0218 4.13026 14.5683 5.03676 14.9501C5.97523 15.3454 6.97224 15.5456 8 15.5456C9.02776 15.5456 10.0248 15.3452 10.9632 14.9501C11.8697 14.5684 12.684 14.0218 13.3832 13.3256C14.0825 12.6293 14.6313 11.8186 15.0149 10.916C15.4119 9.9816 15.613 8.9889 15.613 7.96559C15.613 6.94227 15.4117 5.94957 15.0149 5.01516C14.6315 4.11258 14.0825 3.30186 13.3832 2.60561C12.684 1.90937 11.8697 1.36291 10.9632 0.981041C10.0248 0.585771 9.02776 0.385353 8 0.385353Z" fill="#2EBCC9"/>
<path d="M11.4793 3.39135C11.2971 3.29028 11.0738 3.29532 10.8962 3.4044L9.83929 4.05507C9.45296 4.29289 9.22249 4.70469 9.22249 5.15684V10.4022L5.74694 6.84927V10.7524C5.74694 11.1104 5.45549 11.4008 5.09573 11.4008H5.08699V5.2454L8.1479 8.51281C8.59381 8.09858 8.61828 7.40285 8.20224 6.95887L5.76564 4.35778C5.47506 4.04759 5.03125 3.94772 4.63514 4.10308C4.23885 4.25844 3.9827 4.63301 3.9827 5.05716V12.5003H5.09555C6.06513 12.5003 6.85088 11.7178 6.85088 10.7526V9.55422L9.32244 12.0808C9.59764 12.3622 9.96649 12.5118 10.3437 12.5118C10.5263 12.5118 10.711 12.4766 10.8878 12.4046C11.4292 12.1837 11.7746 11.649 11.7746 11.0664V3.89205C11.7746 3.68433 11.6614 3.49243 11.4791 3.39135H11.4793ZM10.6705 11.0882C10.6705 11.2842 10.5291 11.3627 10.4683 11.3874C10.439 11.3992 10.3876 11.4149 10.3268 11.4124V5.15684C10.3268 5.08899 10.3621 5.02602 10.4201 4.99035L10.6707 4.83604V11.0882H10.6705Z" fill="#2EBCC9"/>
</g>
<defs>
<clipPath id="clip0_9_1483">
<rect width="16" height="16" fill="white"/>
</clipPath>
</defs>
</svg>
