<svg width="203" height="64" viewBox="0 0 203 64" fill="none" xmlns="http://www.w3.org/2000/svg">
<g clip-path="url(#clip0_33_1070)">
<path d="M32.0332 60.1986C47.6231 60.1986 60.2611 47.5737 60.2611 32C60.2611 16.4264 47.6231 3.80142 32.0332 3.80142C16.4434 3.80142 3.80537 16.4264 3.80537 32C3.80537 47.5737 16.4434 60.1986 32.0332 60.1986Z" fill="#4A4736"/>
<path d="M32.0332 64C27.7094 64 23.5137 63.1536 19.5642 61.4853C15.7497 59.8736 12.3242 57.5664 9.38223 54.6275C6.44023 51.6885 4.1307 48.2666 2.51732 44.4561C0.84727 40.51 0 36.3193 0 32C0 27.6807 0.84727 23.4893 2.51732 19.5439C4.1307 15.7334 6.44023 12.3115 9.38223 9.3725C12.3242 6.43355 15.7497 4.12642 19.5642 2.51471C23.5137 0.846391 27.7087 0 32.0332 0C36.3577 0 40.5528 0.846391 44.5023 2.51471C48.3168 4.12642 51.7422 6.43355 54.6842 9.3725C57.6262 12.3115 59.9358 15.7334 61.5491 19.5439C63.2199 23.4893 64.0665 27.6807 64.0665 32C64.0665 36.3193 63.2192 40.5107 61.5491 44.4561C59.9358 48.2666 57.6262 51.6885 54.6842 54.6275C51.7422 57.5664 48.3168 59.8736 44.5023 61.4853C40.5528 63.1543 36.357 64 32.0332 64ZM32.0332 1.54811C27.9179 1.54811 23.9257 2.35326 20.168 3.9412C16.5382 5.47463 13.2779 7.67063 10.4779 10.4677C7.6779 13.2648 5.48032 16.5217 3.9446 20.1477C2.355 23.9016 1.54971 27.8897 1.54971 32.0007C1.54971 36.1117 2.3557 40.0998 3.9446 43.8537C5.47962 47.4797 7.6779 50.7366 10.4779 53.5337C13.2779 56.3308 16.5382 58.5261 20.168 60.0602C23.9257 61.6481 27.9179 62.4526 32.0332 62.4526C36.1485 62.4526 40.1407 61.6474 43.8985 60.0602C47.5283 58.5268 50.7886 56.3308 53.5886 53.5337C56.3886 50.7366 58.5861 47.4797 60.1219 43.8537C61.7115 40.0998 62.5167 36.1117 62.5167 32.0007C62.5167 27.8897 61.7108 23.9016 60.1219 20.1477C58.5868 16.5217 56.3886 13.2648 53.5886 10.4677C50.7886 7.67063 47.5283 5.47533 43.8985 3.9412C40.1407 2.35326 36.1485 1.54811 32.0332 1.54811Z" fill="#2EBCC9"/>
<path d="M46.4501 13.826C45.7204 13.4199 44.8262 13.4402 44.1154 13.8784L39.8832 16.4924C38.3363 17.4478 37.4135 19.1022 37.4135 20.9186V41.991L23.4969 27.7177V43.398C23.4969 44.8363 22.3299 46.0028 20.8893 46.0028H20.8543V21.2744L33.1107 34.4008C34.8962 32.7367 34.9941 29.9417 33.3283 28.158L23.5717 17.7085C22.4082 16.4623 20.6311 16.0612 19.045 16.6853C17.4582 17.3094 16.4326 18.8142 16.4326 20.5182V50.42H20.8886C24.7709 50.42 27.9172 47.2763 27.9172 43.3987V38.5845L37.8137 48.7349C38.9156 49.8651 40.3926 50.4661 41.9031 50.4661C42.6342 50.4661 43.3738 50.325 44.0818 50.0356C46.2493 49.148 47.6325 47.0002 47.6325 44.6595V15.8375C47.6325 15.003 47.1791 14.2321 46.4494 13.826H46.4501ZM43.2115 44.7469C43.2115 45.5346 42.6454 45.8498 42.402 45.949C42.2844 45.9966 42.0787 46.0595 41.8353 46.0497V20.9186C41.8353 20.6461 41.9766 20.3931 42.2089 20.2498L43.2122 19.6298V44.7469H43.2115Z" fill="#2EBCC9"/>
<path d="M77.9831 19.8788V32.209H77.8919L76.3372 26.9317C75.6081 24.3678 74.8698 21.8032 74.121 19.2393C73.8362 18.2649 72.941 17.5959 71.9245 17.5959H69.0665V43.7281C69.0665 44.9887 70.0902 46.0109 71.3529 46.0109H73.6393V31.3972H73.7305L75.0109 35.8626C76.0169 39.2456 77.0072 42.6286 77.9831 46.0109H80.2695C81.5321 46.0109 82.5559 44.9887 82.5559 43.7281V17.5959H80.2695C79.0068 17.5959 77.9831 18.6181 77.9831 19.8788Z" fill="#2EBCC9"/>
<path d="M91.0263 23.6706C88.4944 23.6706 86.7212 24.6181 85.706 26.5124C84.6907 28.4073 84.1828 31.2484 84.1828 35.037C84.1828 38.8256 84.6907 41.6673 85.706 43.5616C86.7212 45.4566 88.4944 46.4034 91.0263 46.4034C93.5581 46.4034 95.3314 45.4566 96.3466 43.5616C97.3618 41.6673 97.8698 38.8262 97.8698 35.037C97.8698 31.2478 97.3618 28.4073 96.3466 26.5124C95.3314 24.6181 93.5575 23.6706 91.0263 23.6706ZM92.8146 39.4651C92.682 40.5102 92.476 41.2421 92.1964 41.6601C91.9162 42.0788 91.5263 42.2872 91.0263 42.2872C90.5262 42.2872 90.1357 42.0782 89.8562 41.6601C89.5759 41.2428 89.3705 40.5109 89.238 39.4651C89.1054 38.4207 89.0391 36.9437 89.0391 35.0364C89.0391 33.129 89.1054 31.6527 89.238 30.6076C89.3705 29.5632 89.5759 28.8313 89.8562 28.4126C90.1357 27.9952 90.5255 27.7855 91.0263 27.7855C91.527 27.7855 91.9162 27.9952 92.1964 28.4126C92.476 28.8306 92.682 29.5625 92.8146 30.6076C92.9471 31.6534 93.0134 33.1296 93.0134 35.0364C93.0134 36.9431 92.9471 38.4207 92.8146 39.4651Z" fill="#2EBCC9"/>
<path d="M109.35 24.0625H108.231C107.33 24.0625 106.569 24.7314 106.456 25.6252C106.435 25.7962 106.413 25.9672 106.391 26.1396C106.185 27.8903 105.964 29.6411 105.729 31.3913L104.581 40.5626H104.493L103.433 31.9404C103.285 30.6862 103.168 29.7453 103.08 29.1183C102.992 28.4912 102.874 27.5247 102.727 26.2182C102.703 26.0223 102.68 25.8277 102.656 25.6331C102.546 24.736 101.784 24.0625 100.88 24.0625H97.5174C97.7825 25.7615 97.9807 27.0281 98.1132 27.8641C98.2458 28.7009 98.4591 29.9943 98.7538 31.7444V31.8617L100.766 44.5045C100.904 45.372 101.653 46.0103 102.533 46.0103H106.501C107.38 46.0103 108.13 45.3734 108.269 44.5065C108.594 42.4733 108.911 40.4401 109.218 38.4062L110.322 31.1947C110.557 29.6267 110.742 28.4512 110.874 27.6669C110.942 27.262 111.025 26.7456 111.121 26.1173C111.286 25.0361 110.448 24.0611 109.352 24.0611L109.35 24.0625Z" fill="#2EBCC9"/>
<path d="M115.45 17.5959C114.618 17.5959 113.898 18.1693 113.708 18.9785C113.454 20.0596 113.193 21.1401 112.925 22.2206V22.2992H113.328C114.742 22.2992 116.067 21.6106 116.882 20.4567C116.893 20.441 116.904 20.4252 116.915 20.4095C117.75 19.2268 116.9 17.5959 115.451 17.5959H115.45Z" fill="#2EBCC9"/>
<path d="M114.448 24.0625H112.13V43.696C112.13 44.9743 113.168 46.0103 114.448 46.0103C115.729 46.0103 116.766 44.9743 116.766 43.696V26.3767C116.766 25.0984 115.729 24.0625 114.448 24.0625Z" fill="#2EBCC9"/>
<path d="M128.952 35.0167C128.305 34.429 127.466 33.7822 126.436 33.0765C125.346 32.2929 124.559 31.6527 124.074 31.156C123.588 30.66 123.345 30.0585 123.345 29.3535C123.345 28.8575 123.47 28.4394 123.721 28.0994C123.971 27.76 124.346 27.5896 124.847 27.5896C125.2 27.5896 125.494 27.6944 125.73 27.9035C125.965 28.1131 126.142 28.446 126.26 28.9027C126.371 29.3378 126.43 29.9085 126.436 30.6148C126.436 30.6751 126.485 30.7256 126.546 30.7256H127.066C129.739 30.7256 131.264 27.6237 129.58 25.5498C129.57 25.5374 129.56 25.5249 129.55 25.5132C128.535 24.2852 126.982 23.6713 124.892 23.6713C122.802 23.6713 121.286 24.2138 120.168 25.2976C119.049 26.382 118.489 27.6951 118.489 29.2369C118.489 30.3868 118.703 31.386 119.129 32.2352C119.556 33.0844 120.086 33.7901 120.719 34.3516C121.351 34.9138 122.153 35.5343 123.125 36.2132C124.273 37.0499 125.112 37.7615 125.642 38.3492C126.172 38.937 126.437 39.6623 126.437 40.5246C126.437 41.0475 126.297 41.5042 126.017 41.8967C125.737 42.2885 125.347 42.4844 124.847 42.4844C124.465 42.4844 124.126 42.3606 123.832 42.1123C123.537 41.8646 123.309 41.4793 123.148 40.9558C122.993 40.4571 122.913 39.8274 122.905 39.0674C122.905 39.0071 122.856 38.9573 122.796 38.9573H121.575C119.578 38.9573 118.191 40.9839 118.961 42.8238C118.966 42.835 118.971 42.8461 118.975 42.8573C119.446 43.9679 120.174 44.8367 121.16 45.4638C122.146 46.0909 123.39 46.4047 124.891 46.4047C126.981 46.4047 128.57 45.8039 129.66 44.6015C130.748 43.3998 131.293 41.9753 131.293 40.3294C131.293 39.1277 131.065 38.0891 130.609 37.2137C130.152 36.339 129.6 35.6071 128.953 35.0187L128.952 35.0167Z" fill="#2EBCC9"/>
<path d="M143.037 35.0167C142.389 34.429 141.551 33.7822 140.52 33.0765C139.431 32.2929 138.644 31.6527 138.158 31.156C137.673 30.66 137.43 30.0585 137.43 29.3535C137.43 28.8575 137.555 28.4394 137.805 28.0994C138.055 27.76 138.431 27.5896 138.931 27.5896C139.284 27.5896 139.578 27.6944 139.815 27.9035C140.05 28.1131 140.227 28.446 140.344 28.9027C140.456 29.3378 140.515 29.9085 140.521 30.6148C140.521 30.6751 140.57 30.7256 140.631 30.7256H141.15C143.824 30.7256 145.348 27.6237 143.665 25.5498C143.655 25.5374 143.645 25.5249 143.635 25.5132C142.62 24.2852 141.066 23.6713 138.977 23.6713C136.887 23.6713 135.371 24.2138 134.252 25.2976C133.133 26.382 132.574 27.6951 132.574 29.2369C132.574 30.3868 132.787 31.386 133.214 32.2352C133.641 33.0844 134.17 33.7901 134.803 34.3516C135.436 34.9138 136.238 35.5343 137.21 36.2132C138.358 37.0499 139.197 37.7615 139.727 38.3492C140.256 38.937 140.522 39.6623 140.522 40.5246C140.522 41.0475 140.382 41.5042 140.102 41.8967C139.822 42.2885 139.432 42.4844 138.932 42.4844C138.549 42.4844 138.211 42.3606 137.917 42.1123C137.622 41.8646 137.394 41.4793 137.232 40.9558C137.077 40.4571 136.997 39.8274 136.99 39.0674C136.99 39.0071 136.941 38.9573 136.881 38.9573H135.659C133.662 38.9573 132.276 40.9839 133.046 42.8238C133.051 42.835 133.055 42.8461 133.06 42.8573C133.53 43.9679 134.259 44.8367 135.245 45.4638C136.231 46.0909 137.475 46.4047 138.976 46.4047C141.066 46.4047 142.655 45.8039 143.744 44.6015C144.833 43.3998 145.378 41.9753 145.378 40.3294C145.378 39.1277 145.149 38.0891 144.693 37.2137C144.237 36.339 143.685 35.6071 143.038 35.0187L143.037 35.0167Z" fill="#2EBCC9"/>
<path d="M200.361 35.0167C199.714 34.429 198.875 33.7822 197.845 33.0765C196.755 32.2929 195.968 31.6527 195.483 31.156C194.997 30.66 194.754 30.0585 194.754 29.3535C194.754 28.8575 194.879 28.4394 195.13 28.0994C195.38 27.76 195.755 27.5896 196.256 27.5896C196.609 27.5896 196.903 27.6944 197.139 27.9035C197.374 28.1131 197.551 28.446 197.669 28.9027C197.78 29.3378 197.839 29.9085 197.845 30.6148C197.845 30.6751 197.894 30.7256 197.956 30.7256H198.475C201.148 30.7256 202.673 27.6237 200.989 25.5498C200.98 25.5374 200.969 25.5249 200.959 25.5132C199.944 24.2852 198.391 23.6713 196.301 23.6713C194.212 23.6713 192.695 24.2138 191.577 25.2976C190.458 26.382 189.899 27.6951 189.899 29.2369C189.899 30.3868 190.112 31.386 190.538 32.2352C190.965 33.0844 191.495 33.7901 192.128 34.3516C192.761 34.9138 193.563 35.5343 194.534 36.2132C195.682 37.0499 196.522 37.7615 197.051 38.3492C197.581 38.937 197.846 39.6623 197.846 40.5246C197.846 41.0475 197.706 41.5042 197.427 41.8967C197.146 42.2885 196.757 42.4844 196.256 42.4844C195.874 42.4844 195.535 42.3606 195.241 42.1123C194.947 41.8646 194.718 41.4793 194.557 40.9558C194.402 40.4571 194.322 39.8274 194.315 39.0674C194.315 39.0071 194.265 38.9573 194.205 38.9573H192.984C190.987 38.9573 189.6 40.9839 190.37 42.8238C190.375 42.835 190.38 42.8461 190.384 42.8573C190.855 43.9679 191.583 44.8367 192.57 45.4638C193.555 46.0909 194.8 46.4047 196.3 46.4047C198.39 46.4047 199.979 45.8039 201.069 44.6015C202.158 43.3998 202.702 41.9753 202.702 40.3294C202.702 39.1277 202.474 38.0891 202.018 37.2137C201.561 36.339 201.009 35.6071 200.362 35.0187L200.361 35.0167Z" fill="#2EBCC9"/>
<path d="M151.293 18.301C150.763 17.8305 150.145 17.5953 149.438 17.5953C148.731 17.5953 148.076 17.8305 147.562 18.301C147.047 18.7714 146.789 19.3199 146.789 19.9469C146.789 20.574 147.047 21.1558 147.562 21.6125C148.076 22.0699 148.702 22.2986 149.438 22.2986C150.174 22.2986 150.762 22.0699 151.293 21.6125C151.822 21.1558 152.087 20.6002 152.087 19.9469C152.087 19.2936 151.822 18.7714 151.293 18.301Z" fill="#2EBCC9"/>
<path d="M149.416 24.0625H147.209C147.148 24.0625 147.099 24.1116 147.099 24.1725V43.696C147.099 44.9743 148.136 46.0103 149.416 46.0103C150.697 46.0103 151.734 44.9743 151.734 43.696V26.3767C151.734 25.0984 150.697 24.0625 149.416 24.0625Z" fill="#2EBCC9"/>
<path d="M169.572 23.6706C168.571 23.6706 167.79 23.8927 167.231 24.337C166.691 24.7668 166.233 25.3559 165.857 26.1029C165.664 25.5951 165.401 25.175 165.068 24.8461C164.273 24.0625 163.198 23.6706 161.845 23.6706C160.902 23.6706 160.196 23.8534 159.726 24.2197C159.254 24.586 158.798 25.1082 158.357 25.7877L158.348 25.7962C158.327 25.7759 158.313 25.7484 158.313 25.7169C158.313 24.8035 157.571 24.0638 156.657 24.0638H154.008C153.947 24.0638 153.898 24.1129 153.898 24.1738V46.0116H156.216C157.496 46.0116 158.534 44.9756 158.534 43.6973V41.1517C158.534 40.0804 158.534 38.4344 158.534 36.2132V31.1967C158.534 30.0205 158.637 29.1916 158.843 28.7081C159.048 28.2252 159.476 27.9834 160.123 27.9834C160.683 27.9834 161.073 28.2383 161.293 28.7474C161.514 29.2572 161.625 30.0736 161.625 31.1973V46.0122H163.943C165.223 46.0122 166.261 44.9763 166.261 43.6979V41.1523C166.261 40.081 166.261 38.4351 166.261 36.2138V29.742C166.301 29.7329 166.336 29.7027 166.343 29.6503C166.395 29.2559 166.47 28.942 166.57 28.7081C166.775 28.2252 167.202 27.9834 167.85 27.9834C168.409 27.9834 168.8 28.2383 169.02 28.7474C169.241 29.2572 169.352 30.0736 169.352 31.1973V46.0122H171.67C172.95 46.0122 173.988 44.9763 173.988 43.6979V41.1523C173.988 40.081 173.988 38.4351 173.988 36.2138V28.7277C173.988 26.9252 173.59 25.6317 172.795 24.8474C172 24.0638 170.925 23.6719 169.572 23.6719L169.572 23.6706Z" fill="#2EBCC9"/>
<path d="M187.652 26.5117C186.637 24.6174 184.863 23.67 182.332 23.67C179.801 23.67 178.027 24.6174 177.012 26.5117C175.996 28.4067 175.488 31.2478 175.488 35.0364C175.488 38.8249 175.996 41.6667 177.012 43.561C178.027 45.4559 179.8 46.4027 182.332 46.4027C184.864 46.4027 186.637 45.4559 187.652 43.561C188.667 41.6667 189.175 38.8256 189.175 35.0364C189.175 31.2471 188.667 28.4067 187.652 26.5117ZM184.12 39.4651C183.987 40.5102 183.781 41.2421 183.501 41.6601C183.221 42.0788 182.831 42.2872 182.331 42.2872C181.831 42.2872 181.441 42.0782 181.161 41.6601C180.881 41.2428 180.676 40.5109 180.543 39.4651C180.41 38.4206 180.344 36.9437 180.344 35.0364C180.344 33.129 180.41 31.6527 180.543 30.6076C180.676 29.5632 180.881 28.8313 181.161 28.4126C181.441 27.9952 181.831 27.7855 182.331 27.7855C182.832 27.7855 183.221 27.9952 183.501 28.4126C183.781 28.8306 183.987 29.5625 184.12 30.6076C184.252 31.6534 184.318 33.1296 184.318 35.0364C184.318 36.9431 184.252 38.4206 184.12 39.4651Z" fill="#2EBCC9"/>
</g>
<defs>
<clipPath id="clip0_33_1070">
<rect width="202.702" height="64" fill="white"/>
</clipPath>
</defs>
</svg>
