<svg width="77" height="24" viewBox="0 0 77 24" fill="none" xmlns="http://www.w3.org/2000/svg">
<g clip-path="url(#clip0_33_1145)">
<path d="M12.0125 22.5745C17.8586 22.5745 22.5979 17.8401 22.5979 12C22.5979 6.15988 17.8586 1.42553 12.0125 1.42553C6.16628 1.42553 1.42701 6.15988 1.42701 12C1.42701 17.8401 6.16628 22.5745 12.0125 22.5745Z" fill="#4A4736"/>
<path d="M12.0125 24C10.391 24 8.81762 23.6826 7.33656 23.057C5.90614 22.4526 4.62159 21.5874 3.51834 20.4853C2.41509 19.3832 1.54901 18.1 0.943996 16.671C0.317726 15.1913 0 13.6197 0 12C0 10.3803 0.317726 8.80847 0.943996 7.32895C1.54901 5.90001 2.41509 4.6168 3.51834 3.51469C4.62159 2.41258 5.90614 1.54741 7.33656 0.943016C8.81762 0.317396 10.3908 0 12.0125 0C13.6342 0 15.2073 0.317396 16.6884 0.943016C18.1188 1.54741 19.4033 2.41258 20.5066 3.51469C21.6098 4.6168 22.4759 5.90001 23.0809 7.32895C23.7075 8.80847 24.0249 10.3803 24.0249 12C24.0249 13.6197 23.7072 15.1915 23.0809 16.671C22.4759 18.1 21.6098 19.3832 20.5066 20.4853C19.4033 21.5874 18.1188 22.4526 16.6884 23.057C15.2073 23.6829 13.6339 24 12.0125 24ZM12.0125 0.580539C10.4692 0.580539 8.97216 0.882472 7.56298 1.47795C6.20183 2.05299 4.9792 2.87649 3.9292 3.92539C2.87921 4.97429 2.05512 6.19565 1.47922 7.5554C0.883127 8.96311 0.581142 10.4586 0.581142 12.0003C0.581142 13.5419 0.883389 15.0374 1.47922 16.4451C2.05486 17.8049 2.87921 19.0262 3.9292 20.0751C4.9792 21.124 6.20183 21.9473 7.56298 22.5226C8.97216 23.1181 10.4692 23.4197 12.0125 23.4197C13.5557 23.4197 15.0528 23.1178 16.4619 22.5226C17.8231 21.9475 19.0457 21.124 20.0957 20.0751C21.1457 19.0262 21.9698 17.8049 22.5457 16.4451C23.1418 15.0374 23.4438 13.5419 23.4438 12.0003C23.4438 10.4586 23.1415 8.96311 22.5457 7.5554C21.9701 6.19565 21.1457 4.97429 20.0957 3.92539C19.0457 2.87649 17.8231 2.05325 16.4619 1.47795C15.0528 0.882472 13.5557 0.580539 12.0125 0.580539Z" fill="#2EBCC9"/>
<path d="M17.4188 5.18476C17.1451 5.03248 16.8098 5.04008 16.5433 5.20442L14.9562 6.18465C14.3761 6.54293 14.0301 7.16331 14.0301 7.84449V15.7466L8.81133 10.3941V16.2742C8.81133 16.8136 8.3737 17.2511 7.83348 17.2511H7.82037V7.9779L12.4165 12.9003C13.0861 12.2762 13.1228 11.2281 12.4981 10.5593L8.8394 6.64069C8.40308 6.17338 7.73667 6.02294 7.14189 6.25699C6.54684 6.49104 6.16221 7.05533 6.16221 7.69431V18.9075H7.83322C9.2891 18.9075 10.469 17.7286 10.469 16.2745V14.4692L14.1801 18.2756C14.5934 18.6994 15.1472 18.9248 15.7137 18.9248C15.9878 18.9248 16.2652 18.8719 16.5307 18.7634C17.3435 18.4305 17.8622 17.6251 17.8622 16.7473V5.93907C17.8622 5.62613 17.6922 5.33703 17.4185 5.18476H17.4188ZM16.2043 16.7801C16.2043 17.0755 15.992 17.1937 15.9007 17.2309C15.8567 17.2487 15.7795 17.2723 15.6882 17.2686V7.84449C15.6882 7.74228 15.7412 7.6474 15.8283 7.59367L16.2046 7.36119V16.7801H16.2043Z" fill="#2EBCC9"/>
<path d="M29.2437 7.45495V12.0788H29.2094L28.6264 10.0998C28.353 9.13833 28.0762 8.17661 27.7954 7.21513C27.6886 6.84976 27.3529 6.59888 26.9717 6.59888H25.8999V16.3984C25.8999 16.8712 26.2838 17.2545 26.7573 17.2545H27.6147V11.7743H27.6489L28.1291 13.4489C28.5063 14.7175 28.8777 15.9861 29.2437 17.2545H30.1011C30.5746 17.2545 30.9585 16.8712 30.9585 16.3984V6.59888H30.1011C29.6276 6.59888 29.2437 6.9822 29.2437 7.45495Z" fill="#2EBCC9"/>
<path d="M34.1349 8.87649C33.1854 8.87649 32.5205 9.23179 32.1397 9.94215C31.759 10.6528 31.5685 11.7182 31.5685 13.1389C31.5685 14.5596 31.759 15.6253 32.1397 16.3356C32.5205 17.0462 33.1854 17.4013 34.1349 17.4013C35.0843 17.4013 35.7493 17.0462 36.13 16.3356C36.5107 15.6253 36.7012 14.5598 36.7012 13.1389C36.7012 11.7179 36.5107 10.6528 36.13 9.94215C35.7493 9.23179 35.0841 8.87649 34.1349 8.87649ZM34.8055 14.7994C34.7558 15.1913 34.6785 15.4658 34.5736 15.6226C34.4686 15.7796 34.3224 15.8577 34.1349 15.8577C33.9473 15.8577 33.8009 15.7793 33.6961 15.6226C33.591 15.466 33.5139 15.1916 33.4642 14.7994C33.4145 14.4077 33.3897 13.8539 33.3897 13.1386C33.3897 12.4234 33.4145 11.8698 33.4642 11.4779C33.5139 11.0862 33.591 10.8117 33.6961 10.6547C33.8009 10.4982 33.9471 10.4196 34.1349 10.4196C34.3226 10.4196 34.4686 10.4982 34.5736 10.6547C34.6785 10.8115 34.7558 11.0859 34.8055 11.4779C34.8552 11.87 34.88 12.4236 34.88 13.1386C34.88 13.8537 34.8552 14.4077 34.8055 14.7994Z" fill="#2EBCC9"/>
<path d="M41.0064 9.02342H40.5868C40.2487 9.02342 39.9634 9.27429 39.9211 9.60945C39.913 9.67358 39.9049 9.73771 39.8967 9.80233C39.8195 10.4589 39.7365 11.1154 39.6484 11.7717L39.218 15.211H39.1848L38.7873 11.9776C38.732 11.5073 38.6879 11.1545 38.6549 10.9193C38.622 10.6842 38.5777 10.3218 38.5225 9.83182C38.5137 9.75835 38.5048 9.68537 38.496 9.6124C38.4549 9.27601 38.1691 9.02342 37.83 9.02342H36.569C36.6684 9.66056 36.7428 10.1355 36.7925 10.4491C36.8422 10.7628 36.9222 11.2479 37.0327 11.9042V11.9481L37.7872 16.6892C37.8389 17.0145 38.1199 17.2538 38.4499 17.2538H39.9378C40.2674 17.2538 40.5487 17.015 40.6008 16.6899C40.7229 15.9275 40.8418 15.165 40.9569 14.4023L41.3709 11.698C41.459 11.11 41.5281 10.6692 41.5778 10.3751C41.6034 10.2232 41.6342 10.0296 41.6704 9.79398C41.7321 9.38855 41.4179 9.02293 41.0071 9.02293L41.0064 9.02342Z" fill="#2EBCC9"/>
<path d="M43.2939 6.59848C42.9818 6.59848 42.7119 6.81348 42.6405 7.11693C42.5453 7.52236 42.4473 7.92754 42.3469 8.33272V8.36221H42.498C43.0283 8.36221 43.525 8.10396 43.8306 7.67126C43.8348 7.66536 43.839 7.65947 43.8432 7.65357C44.1562 7.21006 43.8375 6.59848 43.2941 6.59848H43.2939Z" fill="#2EBCC9"/>
<path d="M42.9181 9.02343H42.0489V16.386C42.0489 16.8654 42.438 17.2539 42.9181 17.2539C43.3982 17.2539 43.7873 16.8654 43.7873 16.386V9.89129C43.7873 9.4119 43.3982 9.02343 42.9181 9.02343Z" fill="#2EBCC9"/>
<path d="M48.3571 13.1313C48.1142 12.9109 47.7997 12.6683 47.4133 12.4037C47.0048 12.1098 46.7097 11.8698 46.5276 11.6835C46.3455 11.4975 46.2544 11.272 46.2544 11.0076C46.2544 10.8216 46.3012 10.6648 46.3952 10.5373C46.489 10.41 46.6297 10.3461 46.8175 10.3461C46.9499 10.3461 47.0602 10.3854 47.1488 10.4638C47.2369 10.5424 47.3033 10.6673 47.3474 10.8385C47.3892 11.0017 47.4114 11.2157 47.4136 11.4806C47.4136 11.5032 47.432 11.5221 47.4549 11.5221H47.6496C48.6522 11.5221 49.2239 10.3589 48.5926 9.5812C48.5889 9.57653 48.585 9.57186 48.5813 9.56744C48.2006 9.10697 47.6181 8.87673 46.8345 8.87673C46.0509 8.87673 45.4822 9.08019 45.0628 9.4866C44.6432 9.89325 44.4336 10.3857 44.4336 10.9638C44.4336 11.3951 44.5135 11.7698 44.6735 12.0882C44.8335 12.4067 45.0321 12.6713 45.2696 12.8819C45.5068 13.0927 45.8075 13.3254 46.172 13.5799C46.6024 13.8937 46.9172 14.1606 47.1158 14.381C47.3144 14.6014 47.4138 14.8734 47.4138 15.1967C47.4138 15.3928 47.3614 15.5641 47.2566 15.7113C47.1515 15.8582 47.0053 15.9317 46.8178 15.9317C46.6743 15.9317 46.5473 15.8852 46.437 15.7921C46.3265 15.6992 46.2409 15.5547 46.1804 15.3584C46.1223 15.1714 46.0923 14.9353 46.0896 14.6503C46.0896 14.6277 46.0711 14.609 46.0485 14.609H45.5905C44.8416 14.609 44.3216 15.369 44.6105 16.0589C44.6122 16.0631 44.614 16.0673 44.6157 16.0715C44.7921 16.488 45.0653 16.8138 45.4352 17.0489C45.8048 17.2841 46.2714 17.4018 46.8343 17.4018C47.6178 17.4018 48.2139 17.1765 48.6224 16.7256C49.0307 16.2749 49.2349 15.7407 49.2349 15.1235C49.2349 14.6729 49.1493 14.2834 48.9783 13.9551C48.807 13.6271 48.6 13.3527 48.3574 13.132L48.3571 13.1313Z" fill="#2EBCC9"/>
<path d="M53.6389 13.1313C53.396 12.9109 53.0815 12.6683 52.6951 12.4037C52.2866 12.1098 51.9915 11.8698 51.8094 11.6835C51.6273 11.4975 51.5362 11.272 51.5362 11.0076C51.5362 10.8216 51.583 10.6648 51.677 10.5373C51.7707 10.41 51.9115 10.3461 52.0993 10.3461C52.2317 10.3461 52.3419 10.3854 52.4305 10.4638C52.5186 10.5424 52.5851 10.6673 52.6291 10.8385C52.671 11.0017 52.6931 11.2157 52.6953 11.4806C52.6953 11.5032 52.7138 11.5221 52.7367 11.5221H52.9313C53.9339 11.5221 54.5056 10.3589 53.8744 9.5812C53.8707 9.57653 53.8667 9.57186 53.8631 9.56744C53.4823 9.10697 52.8998 8.87673 52.1163 8.87673C51.3327 8.87673 50.7639 9.08019 50.3446 9.4866C49.925 9.89325 49.7153 10.3857 49.7153 10.9638C49.7153 11.3951 49.7953 11.7698 49.9553 12.0882C50.1152 12.4067 50.3138 12.6713 50.5513 12.8819C50.7886 13.0927 51.0893 13.3254 51.4538 13.5799C51.8842 13.8937 52.1989 14.1606 52.3975 14.381C52.5961 14.6014 52.6956 14.8734 52.6956 15.1967C52.6956 15.3928 52.6431 15.5641 52.5383 15.7113C52.4332 15.8582 52.287 15.9317 52.0995 15.9317C51.956 15.9317 51.8291 15.8852 51.7188 15.7921C51.6083 15.6992 51.5227 15.5547 51.4621 15.3584C51.404 15.1714 51.374 14.9353 51.3713 14.6503C51.3713 14.6277 51.3529 14.609 51.3302 14.609H50.8722C50.1234 14.609 49.6033 15.369 49.8923 16.0589C49.894 16.0631 49.8957 16.0673 49.8974 16.0715C50.0739 16.488 50.3471 16.8138 50.7169 17.0489C51.0866 17.2841 51.5532 17.4018 52.116 17.4018C52.8996 17.4018 53.4956 17.1765 53.9042 16.7256C54.3124 16.2749 54.5167 15.7407 54.5167 15.1235C54.5167 14.6729 54.4311 14.2834 54.26 13.9551C54.0887 13.6271 53.8818 13.3527 53.6391 13.132L53.6389 13.1313Z" fill="#2EBCC9"/>
<path d="M75.1355 13.1313C74.8926 12.9109 74.5781 12.6683 74.1917 12.4037C73.7832 12.1098 73.4881 11.8698 73.306 11.6835C73.1239 11.4975 73.0329 11.272 73.0329 11.0076C73.0329 10.8216 73.0796 10.6648 73.1736 10.5373C73.2674 10.41 73.4082 10.3461 73.5959 10.3461C73.7283 10.3461 73.8386 10.3854 73.9272 10.4638C74.0153 10.5424 74.0817 10.6673 74.1258 10.8385C74.1676 11.0017 74.1898 11.2157 74.192 11.4806C74.192 11.5032 74.2104 11.5221 74.2333 11.5221H74.428C75.4306 11.5221 76.0023 10.3589 75.371 9.5812C75.3673 9.57653 75.3634 9.57186 75.3597 9.56744C74.979 9.10697 74.3965 8.87673 73.6129 8.87673C72.8293 8.87673 72.2606 9.08019 71.8413 9.4866C71.4217 9.89325 71.212 10.3857 71.212 10.9638C71.212 11.3951 71.292 11.7698 71.4519 12.0882C71.6119 12.4067 71.8105 12.6713 72.048 12.8819C72.2852 13.0927 72.5859 13.3254 72.9504 13.5799C73.3808 13.8937 73.6956 14.1606 73.8942 14.381C74.0928 14.6014 74.1922 14.8734 74.1922 15.1967C74.1922 15.3928 74.1398 15.5641 74.035 15.7113C73.9299 15.8582 73.7837 15.9317 73.5962 15.9317C73.4527 15.9317 73.3257 15.8852 73.2155 15.7921C73.105 15.6992 73.0193 15.5547 72.9588 15.3584C72.9007 15.1714 72.8707 14.9353 72.868 14.6503C72.868 14.6277 72.8495 14.609 72.8269 14.609H72.3689C71.62 14.609 71.1 15.369 71.3889 16.0589C71.3906 16.0631 71.3924 16.0673 71.3941 16.0715C71.5705 16.488 71.8437 16.8138 72.2136 17.0489C72.5832 17.2841 73.0498 17.4018 73.6127 17.4018C74.3962 17.4018 74.9923 17.1765 75.4008 16.7256C75.8091 16.2749 76.0134 15.7407 76.0134 15.1235C76.0134 14.6729 75.9277 14.2834 75.7567 13.9551C75.5854 13.6271 75.3784 13.3527 75.1358 13.132L75.1355 13.1313Z" fill="#2EBCC9"/>
<path d="M56.7348 6.86287C56.5362 6.68644 56.3043 6.59823 56.0393 6.59823C55.7743 6.59823 55.5286 6.68644 55.3357 6.86287C55.1425 7.03929 55.0461 7.24495 55.0461 7.4801C55.0461 7.71525 55.1425 7.93344 55.3357 8.1047C55.5286 8.27621 55.7634 8.36196 56.0393 8.36196C56.3152 8.36196 56.5359 8.27621 56.7348 8.1047C56.9334 7.93344 57.0328 7.72507 57.0328 7.4801C57.0328 7.23512 56.9334 7.03929 56.7348 6.86287Z" fill="#2EBCC9"/>
<path d="M56.0312 9.02343H55.2033C55.1804 9.02343 55.162 9.04185 55.162 9.0647V16.386C55.162 16.8654 55.551 17.2539 56.0312 17.2539C56.5113 17.2539 56.9004 16.8654 56.9004 16.386V9.89129C56.9004 9.4119 56.5113 9.02343 56.0312 9.02343Z" fill="#2EBCC9"/>
<path d="M63.5893 8.87649C63.214 8.87649 62.9214 8.95978 62.7118 9.12638C62.509 9.28757 62.3372 9.50846 62.1964 9.78858C62.1238 9.59815 62.0254 9.44065 61.9004 9.3173C61.6023 9.02342 61.1992 8.87649 60.6918 8.87649C60.3384 8.87649 60.0736 8.94504 59.8971 9.08239C59.7204 9.21975 59.5494 9.41558 59.3838 9.67039L59.3803 9.67358C59.3725 9.66596 59.3673 9.65565 59.3673 9.64385C59.3673 9.30133 59.0892 9.02391 58.7464 9.02391H57.7531C57.7302 9.02391 57.7118 9.04234 57.7118 9.0652V17.2543H58.581C59.0611 17.2543 59.4502 16.8659 59.4502 16.3865V15.4319C59.4502 15.0301 59.4502 14.4129 59.4502 13.5799V11.6988C59.4502 11.2577 59.4889 10.9469 59.5661 10.7655C59.6432 10.5844 59.8034 10.4938 60.0463 10.4938C60.2559 10.4938 60.4024 10.5894 60.4851 10.7803C60.5678 10.9714 60.6093 11.2776 60.6093 11.699V17.2546H61.4786C61.9587 17.2546 62.3478 16.8661 62.3478 16.3867V15.4321C62.3478 15.0304 62.3478 14.4132 62.3478 13.5802V11.1533C62.3628 11.1498 62.3761 11.1385 62.3788 11.1189C62.398 10.971 62.4263 10.8533 62.4637 10.7655C62.5407 10.5844 62.7009 10.4938 62.9438 10.4938C63.1535 10.4938 63.2999 10.5894 63.3826 10.7803C63.4653 10.9714 63.5069 11.2776 63.5069 11.699V17.2546H64.3761C64.8563 17.2546 65.2453 16.8661 65.2453 16.3867V15.4321C65.2453 15.0304 65.2453 14.4132 65.2453 13.5802V10.7729C65.2453 10.0969 65.0962 9.61191 64.7982 9.31779C64.5002 9.02392 64.097 8.87698 63.5896 8.87698L63.5893 8.87649Z" fill="#2EBCC9"/>
<path d="M70.3696 9.9419C69.9889 9.23154 69.3237 8.87624 68.3745 8.87624C67.4253 8.87624 66.7601 9.23154 66.3794 9.9419C65.9986 10.6525 65.8082 11.7179 65.8082 13.1386C65.8082 14.5593 65.9986 15.625 66.3794 16.3354C66.7601 17.046 67.425 17.401 68.3745 17.401C69.3239 17.401 69.9889 17.046 70.3696 16.3354C70.7503 15.625 70.9408 14.5596 70.9408 13.1386C70.9408 11.7177 70.7503 10.6525 70.3696 9.9419ZM69.0448 14.7994C68.9951 15.1913 68.9179 15.4658 68.813 15.6226C68.7079 15.7796 68.5618 15.8577 68.3742 15.8577C68.1867 15.8577 68.0403 15.7793 67.9354 15.6226C67.8304 15.466 67.7533 15.1916 67.7036 14.7994C67.6539 14.4077 67.629 13.8539 67.629 13.1386C67.629 12.4234 67.6539 11.8698 67.7036 11.4779C67.7533 11.0862 67.8304 10.8117 67.9354 10.6547C68.0403 10.4982 68.1865 10.4196 68.3742 10.4196C68.562 10.4196 68.7079 10.4982 68.813 10.6547C68.9179 10.8115 68.9951 11.0859 69.0448 11.4779C69.0946 11.87 69.1194 12.4236 69.1194 13.1386C69.1194 13.8537 69.0946 14.4077 69.0448 14.7994Z" fill="#2EBCC9"/>
</g>
<defs>
<clipPath id="clip0_33_1145">
<rect width="76.0134" height="24" fill="white"/>
</clipPath>
</defs>
</svg>
